<?xml version="1.0" encoding="utf-8"?>
<!-- Generator: Adobe Illustrator 15.0.0, SVG Export Plug-In . SVG Version: 6.00 Build 0)  -->
<!DOCTYPE svg PUBLIC "-//W3C//DTD SVG 1.1//EN" "http://www.w3.org/Graphics/SVG/1.1/DTD/svg11.dtd">
<svg version="1.1" id="Layer_1" xmlns="http://www.w3.org/2000/svg" xmlns:xlink="http://www.w3.org/1999/xlink" x="0px" y="0px"
	 width="260.223px" height="58.833px" viewBox="0 0 260.223 58.833" enable-background="new 0 0 260.223 58.833"
	 xml:space="preserve">
<g>
	<g>
		<path d="M259.59,46.712l0.633-12.09l-2.436-0.221c-1.899,7.263-5.456,9.876-13.299,9.876c-2.874,0-3.702-0.133-3.702-2.348V19.387
			c0-1.771,0.39-2.346,2.484-2.346h3.069v-2.304h-19.291v2.304h2.533c2.144,0,2.436,0.575,2.436,2.346v22.675
			c0,1.771-0.39,2.303-2.484,2.303h-2.484v2.347H259.59z M225.678,14.737h-19.145v2.304h2.68c2.143,0,2.483,0.575,2.483,2.346
			v22.675c0,1.771-0.39,2.303-2.483,2.303h-2.68v2.347h19.145v-2.347h-2.776c-2.095,0-2.436-0.531-2.436-2.303V19.387
			c0-1.771,0.341-2.346,2.436-2.346h2.776V14.737z M203.798,14.737h-31.81v2.304h2.484c2.144,0,2.484,0.575,2.484,2.346v22.675
			c0,1.771-0.39,2.303-2.484,2.303h-2.484v2.347h19.534v-2.347h-3.506c-2.095,0-2.436-0.531-2.436-2.303V31.39
			c0.243,0,0.438,0,0.682,0c4.287,0,6.089,1.682,6.917,6.111h2.436V22.842h-2.436c-0.829,4.429-2.583,6.156-6.917,6.156
			c-0.244,0-0.439,0-0.682,0v-9.478c0-2.214,0.73-2.392,3.555-2.392c7.454,0,10.816,2.348,12.667,9.123h2.387L203.798,14.737z
			 M146.746,31.345c0.683-0.044,1.364-0.044,1.949-0.044c5.603,0,6.625,1.462,6.966,6.333c0.146,2.436-0.244,4.738,1.023,6.864
			c1.168,1.993,3.556,3.011,7.063,3.011c5.115,0,8.135-2.833,8.135-7.794c0-0.133,0-0.222,0-0.354h-2.484
			c-0.048,2.878-0.633,4.339-2.046,4.339c-2.192,0-1.704-3.277-3.117-7.174c-1.267-3.543-3.946-5.447-7.502-5.536V30.68
			c6.917-0.221,10.863-3.188,10.863-7.838c0-5.27-4.432-8.104-13.104-8.104h-21.482v2.304h2.63c1.9,0,2.485,0.487,2.485,2.346
			v22.675c0,1.86-0.585,2.303-2.485,2.303h-2.63v2.347h18.804v-2.347h-2.631c-1.851,0-2.436-0.399-2.436-2.303V31.345z
			 M146.746,19.477c0-2.17,0.537-2.436,3.751-2.436c5.797,0,8.184,1.328,8.184,5.934c0,4.738-2.922,6.111-9.889,6.111
			c-0.682,0-1.315,0-2.046-0.088V19.477z M97.05,46.712h32.834l0.634-12.001l-2.437-0.177c-1.899,7.351-5.603,9.92-13.786,9.92
			c-2.972,0-3.703-0.221-3.703-2.392V31.39c0.244,0,0.438,0,0.682,0c4.287,0,6.089,1.682,6.917,6.111h2.436V22.842h-2.436
			c-0.828,4.429-2.582,6.156-6.917,6.156c-0.244,0-0.438,0-0.682,0v-9.611c0-2.214,0.73-2.391,3.557-2.391
			c7.501,0,10.912,2.391,12.666,9.255h2.387l-0.39-11.514H97.05v2.304h2.436c2.144,0,2.485,0.575,2.485,2.346v22.675
			c0,1.771-0.39,2.303-2.485,2.303H97.05V46.712z M74.439,42.062v-9.079c1.754,0.044,3.361,0.044,4.871,0.044
			c10.864,0,16.174-2.879,16.174-9.212c0-5.934-4.579-9.079-13.396-9.079H60.605v2.304h2.631c2.143,0,2.484,0.575,2.484,2.346
			v22.675c0,1.771-0.39,2.303-2.484,2.303h-2.631v2.347h19.291v-2.347h-3.069C74.83,44.365,74.439,43.922,74.439,42.062z
			 M74.439,19.83c0-2.479,0.584-2.789,3.8-2.789c5.699,0,7.94,1.638,7.94,6.775c0,5.359-2.68,6.776-9.305,6.776
			c-1.071,0-1.851-0.044-2.436-0.133V19.83z"/>
	</g>
</g>
<circle fill="#557C9C" cx="29.417" cy="29.417" r="29.417"/>
<path fill="#FFFFFF" d="M25.96,29.776c-0.049-0.007-0.108-0.108-0.108-0.108c-0.142-0.271-0.077-1.204,0.251-2.665
	c0.39-1.743,1.885-3.183,3.256-3.804c0.986-0.446,3.146-1.25,4.755-1.684c1.954-0.526,6.157-1.516,6.157-1.516
	s2.149-0.498,3.837-0.789c1.579-0.272,3.152-0.432,3.783-0.628c1.076-0.335,2.188-0.65,3.072-1.402
	c-0.697,0.571,0.189-0.122,0.044-0.053c0.1-0.096,0.139-0.096,0.192-0.168c0,0,0.888-0.903,0.727-1.617
	c-0.161-0.714-1.407-0.595-1.407-0.595s-2.571,0.016-3.357,0.111c-0.788,0.096-0.898,0.349-1.428,0.841
	c-0.53,0.492-0.944,0.798-1.795,0.83c-0.852,0.032-4.904-0.575-6.592-0.56c-1.687,0.016-4.802-0.016-9.027,0.938
	c-1.084,0.245-2.736,0.692-4.932,1.667c0,0-1.805,0.667-3.135,2.262c0,0-0.717,0.887-0.773,3.202
	c-0.017,0.69,0.408,1.94-0.031,2.383c-0.614,0.618-2.286,0.454-2.847,0.372c-1.25-0.186-2.326-0.724-2.568-0.882
	c-0.443-0.291-1.285-0.94-1.392-1.764c-0.266-2.029-0.797-2.879-2.212-3.016c0,0-0.866-0.055-2.934,0.549
	c0,0-1.131,0.316-1.992,0.413c-0.861,0.096-1.906,0.056-1.906,0.289c0,0.233,0.625,0.303,2.359,0.248
	c1.735-0.054,2.872,0.122,3.677,0.671c0,0,0.86,0.411,1.318,1.989c0.458,1.578,0.292,1.989,1.027,2.387c0,0,1.804,0.933,3.705,1.578
	c1.901,0.645,1.928,2.192,1.97,2.536c0.042,0.343,0.127,2.677,0.155,3.404s0.485,2.662,1.872,4.417c0,0,0.912,1.582,4.27,3.365
	c3.229,1.569,3.259,1.426,3.977,1.748c0.709,0.319,1.701,0.758,1.98,1.114c0.201,0.256,0.696,0.854,1.083,0.896
	c0.388,0.043,11.958,0.087,11.958,0.087s0.774,0.031,0.38-0.848c-0.245-0.549-0.763-1.204-1.523-1.56
	c-0.727-0.34-1.25-0.677-2.971-0.974c-1.72-0.298-3.632-0.718-5.74-1.547c-2.108-0.83-4.664-2.714-5.632-3.543
	c-0.968-0.83-2.465-2.007-2.831-3.729c0,0-0.166-0.776,0.383-1.745c0,0,0.252-0.317,0.768-0.367c0,0,0.964,0.061,1.783,0.108
	c0.82,0.047,2.675,0.289,3.751,0.4c1.076,0.111,4.952,0.705,6.253,0.975c1.301,0.27,6.066,1.611,6.708,1.786
	c0.643,0.175,3.934,1.479,4.287,1.051c0,0,0.049-0.057,0.213-0.462c0.237-0.589,1.465-7.607,1.465-7.607s0.155-0.918-1.029-0.961
	c-0.74-0.027-1.183-0.218-2.26-0.155c-1.076,0.063-2.695,0.243-5.329,0.703c-2.634,0.461-5.429,1.135-5.429,1.135
	s-1.114,0.338-3.623,0.723c-2.146,0.329-5.662,0.047-6.289-0.179C26.286,30.023,26.085,29.916,25.96,29.776"/>
</svg>
