<?xml version="1.0" encoding="utf-8"?>
<!-- Generator: Adobe Illustrator 15.1.0, SVG Export Plug-In . SVG Version: 6.00 Build 0)  -->
<!DOCTYPE svg PUBLIC "-//W3C//DTD SVG 1.1//EN" "http://www.w3.org/Graphics/SVG/1.1/DTD/svg11.dtd">
<svg version="1.1" id="Layer_1_1_" xmlns="http://www.w3.org/2000/svg" xmlns:xlink="http://www.w3.org/1999/xlink" x="0px" y="0px"
	 width="382.5px" height="612px" viewBox="114.75 90 382.5 612" enable-background="new 114.75 90 382.5 612" xml:space="preserve">
<path fill="#FFFFFF" d="M306,510.75c63.38,0,114.75-51.37,114.75-114.75V204.75C420.75,141.37,369.38,90,306,90
	c-63.38,0-114.75,51.37-114.75,114.75V396C191.25,459.38,242.62,510.75,306,510.75z"/>
<path fill="#FFFFFF" d="M497.25,396v-76.5H459v70.533c0,73.439-49.036,141.065-121.023,155.716C239.674,565.754,153,490.821,153,396
	v-76.5h-38.25V396c0,92.336,65.828,169.601,153,187.387v80.363h-76.5V702h229.5v-38.25h-76.5v-80.363
	C431.422,565.601,497.25,488.336,497.25,396z"/>
</svg>
