<?xml version="1.0" encoding="utf-8"?>
<!-- Generator: Adobe Illustrator 15.1.0, SVG Export Plug-In . SVG Version: 6.00 Build 0)  -->
<!DOCTYPE svg PUBLIC "-//W3C//DTD SVG 1.1//EN" "http://www.w3.org/Graphics/SVG/1.1/DTD/svg11.dtd">
<svg version="1.1" id="Layer_1" xmlns="http://www.w3.org/2000/svg" xmlns:xlink="http://www.w3.org/1999/xlink" x="0px" y="0px"
	 width="408.771px" height="408.78px" viewBox="113.788 184.628 408.771 408.78"
	 enable-background="new 113.788 184.628 408.771 408.78" xml:space="preserve">
<title></title>
<g id="Search">
	<path fill="#171717" d="M516.786,560.598l-95.551-95.557c59.531-74.461,47.427-183.084-27.034-242.615
		C319.739,162.896,211.117,175,151.586,249.461s-47.427,183.084,27.035,242.615c63.023,50.386,152.543,50.389,215.571,0.008
		l95.55,95.551c7.374,7.563,19.482,7.715,27.045,0.342c7.563-7.374,7.716-19.482,0.342-27.045c-0.112-0.115-0.227-0.229-0.342-0.342
		V560.598z M153,357.75c0-73.937,59.938-133.875,133.875-133.875c73.938,0,133.875,59.938,133.875,133.875
		c0,73.938-59.938,133.875-133.875,133.875C212.973,491.54,153.085,431.651,153,357.75z"/>
</g>
</svg>
