<?xml version="1.0" encoding="utf-8"?>
<!-- Generator: Adobe Illustrator 15.1.0, SVG Export Plug-In . SVG Version: 6.00 Build 0)  -->
<!DOCTYPE svg PUBLIC "-//W3C//DTD SVG 1.1//EN" "http://www.w3.org/Graphics/SVG/1.1/DTD/svg11.dtd">
<svg version="1.1" id="Layer_1" xmlns="http://www.w3.org/2000/svg" xmlns:xlink="http://www.w3.org/1999/xlink" x="0px" y="0px"
	 width="885.237px" height="360.75px" viewBox="-154.495 60 885.237 360.75" enable-background="new -154.495 60 885.237 360.75"
	 xml:space="preserve">
<g>
	<g id="Icon-Pointer" transform="translate(232.000000, 478.000000)">
		<path id="Fill-173" fill="#555555" d="M196-57.25H51.25c-6.75,0-12-5.25-12-12c0-18.75-9-29.25-22.5-45.75
			c-7.5-9-15.75-19.5-24-32.25C-29.75-184-50-226-54.5-242.5s-1.5-26.25,3-32.25c5.25-7.5,14.25-11.25,24.75-11.25
			c14.25,0,29.25,12,42,27.75V-382c0-20.25,16.5-36,36-36s36,16.5,36,36v50.25c3.75-1.5,7.5-2.25,12-2.25
			c12.75,0,24,6.75,30.75,16.5c5.25-3,11.25-4.5,18-4.5c16.5,0,30.75,11.25,34.5,26.25c3.75-1.5,8.25-2.25,13.5-2.25
			c20.25,0,36,16.5,36,36v36c0,30.75-6,56.25-12,80.25C214-121,208-98.5,208-70C208-63.25,202.75-57.25,196-57.25L196-57.25z"/>
	</g>
</g>
<g id="Next">
	<path fill="#555555" d="M730.742,154.868l-64.235,84.467c-7.296,10.909-22.051,13.839-32.961,6.544
		c-10.889-7.28-13.833-21.999-6.582-32.905l30.799-34.344h-81.087c-13.125,0-23.762-10.639-23.762-23.762
		c0-13.123,10.637-23.762,23.762-23.762h81.087l-30.799-34.343c-7.18-10.985-4.094-25.71,6.892-32.89
		c10.845-7.086,25.364-4.183,32.647,6.529L730.742,154.868z"/>
</g>
<g id="Next_1_">
	<path fill="#555555" d="M-154.495,155.023l64.236-84.467c7.295-10.909,22.051-13.839,32.96-6.543
		c10.89,7.28,13.833,21.998,6.583,32.904l-30.799,34.344h81.087c13.125,0,23.762,10.639,23.762,23.762s-10.637,23.762-23.762,23.762
		h-81.087l30.799,34.343c7.18,10.985,4.094,25.71-6.892,32.89c-10.845,7.086-25.365,4.183-32.648-6.529L-154.495,155.023z"/>
</g>
</svg>
