<?xml version="1.0" encoding="utf-8"?>
<!-- Generator: Adobe Illustrator 15.1.0, SVG Export Plug-In . SVG Version: 6.00 Build 0)  -->
<!DOCTYPE svg PUBLIC "-//W3C//DTD SVG 1.1//EN" "http://www.w3.org/Graphics/SVG/1.1/DTD/svg11.dtd">
<svg version="1.1" id="Layer_1" xmlns:serif="http://www.serif.com/"
	 xmlns="http://www.w3.org/2000/svg" xmlns:xlink="http://www.w3.org/1999/xlink" x="0px" y="0px" width="522.238px"
	 height="522.238px" viewBox="44.88 134.88 522.238 522.238" enable-background="new 44.88 134.88 522.238 522.238"
	 xml:space="preserve">
<g transform="matrix(1.01619,0,0,1.01619,44,43.8384)">
	<path fill="#555555" d="M257.825,89.591c-69.786,0-78.537,0.296-105.944,1.546c-27.35,1.249-46.029,5.592-62.375,11.944
		c-16.897,6.567-31.227,15.353-45.512,29.638c-14.285,14.285-23.072,28.615-29.638,45.512C8.003,194.577,3.66,213.256,2.411,240.606
		c-1.25,27.407-1.545,36.158-1.545,105.944c0,69.786,0.295,78.536,1.545,105.943c1.249,27.35,5.592,46.029,11.944,62.374
		c6.567,16.897,15.353,31.227,29.638,45.513c14.285,14.285,28.615,23.072,45.512,29.638c16.346,6.351,35.025,10.696,62.375,11.943
		c27.407,1.25,36.158,1.546,105.944,1.546c69.786,0,78.536-0.296,105.943-1.546c27.35-1.247,46.029-5.592,62.374-11.943
		c16.897-6.567,31.227-15.353,45.513-29.638c14.285-14.286,23.072-28.616,29.638-45.513c6.351-16.345,10.696-35.024,11.943-62.374
		c1.25-27.408,1.546-36.158,1.546-105.943c0-69.786-0.296-78.537-1.546-105.944c-1.247-27.35-5.592-46.029-11.943-62.374
		c-6.567-16.897-15.353-31.227-29.638-45.512c-14.286-14.285-28.616-23.072-45.513-29.638
		c-16.345-6.353-35.024-10.695-62.374-11.944C336.361,89.887,327.611,89.591,257.825,89.591z M257.825,135.891
		c68.61,0,76.738,0.261,103.833,1.498c25.053,1.143,38.659,5.329,47.714,8.847c11.993,4.661,20.554,10.23,29.545,19.222
		c8.992,8.992,14.56,17.552,19.222,29.546c3.519,9.055,7.705,22.66,8.847,47.713c1.237,27.096,1.498,35.223,1.498,103.834
		c0,68.61-0.261,76.738-1.498,103.833c-1.142,25.053-5.328,38.659-8.847,47.714c-4.662,11.993-10.23,20.554-19.222,29.545
		c-8.991,8.992-17.552,14.56-29.545,19.222c-9.055,3.518-22.66,7.704-47.714,8.847c-27.092,1.237-35.218,1.498-103.833,1.498
		c-68.616,0-76.741-0.261-103.834-1.498c-25.053-1.143-38.659-5.329-47.713-8.847c-11.994-4.662-20.554-10.23-29.547-19.222
		c-8.991-8.991-14.56-17.552-19.221-29.545c-3.519-9.055-7.705-22.66-8.848-47.714c-1.236-27.096-1.498-35.223-1.498-103.833
		c0-68.611,0.261-76.739,1.498-103.834c1.143-25.053,5.329-38.659,8.848-47.713c4.66-11.993,10.229-20.554,19.221-29.546
		c8.993-8.991,17.552-14.56,29.547-19.222c9.055-3.518,22.66-7.704,47.713-8.847C181.087,136.152,189.214,135.891,257.825,135.891z"
		/>
	<path fill="#555555" d="M257.825,432.203c-47.305,0-85.653-38.348-85.653-85.653c0-47.305,38.348-85.653,85.653-85.653
		c47.305,0,85.653,38.348,85.653,85.653C343.478,393.855,305.13,432.203,257.825,432.203z M257.825,214.598
		c-72.876,0-131.952,59.076-131.952,131.952c0,72.875,59.076,131.951,131.952,131.951c72.875,0,131.951-59.076,131.951-131.951
		C389.776,273.675,330.701,214.598,257.825,214.598z"/>
	<path fill="#555555" d="M425.826,209.385c0,17.03-13.806,30.835-30.836,30.835c-17.029,0-30.835-13.805-30.835-30.835
		s13.806-30.835,30.835-30.835C412.02,178.55,425.826,192.355,425.826,209.385z"/>
</g>
</svg>
