<?xml version="1.0" encoding="utf-8"?>
<!-- Generator: Adobe Illustrator 15.1.0, SVG Export Plug-In . SVG Version: 6.00 Build 0)  -->
<!DOCTYPE svg PUBLIC "-//W3C//DTD SVG 1.1//EN" "http://www.w3.org/Graphics/SVG/1.1/DTD/svg11.dtd">
<svg version="1.1" id="Layer_1" xmlns:serif="http://www.serif.com/"
	 xmlns="http://www.w3.org/2000/svg" xmlns:xlink="http://www.w3.org/1999/xlink" x="0px" y="0px" width="611.999px"
	 height="428.4px" viewBox="0 181.8 611.999 428.4" enable-background="new 0 181.8 611.999 428.4" xml:space="preserve">
<path fill="#555555" d="M599.214,248.696c-7.037-26.333-27.773-47.068-54.105-54.106C497.377,181.8,306,181.8,306,181.8
	s-191.378,0-239.109,12.79c-26.328,7.038-47.068,27.773-54.105,54.106C0,296.422,0,396.004,0,396.004s0,99.579,12.786,147.301
	c7.037,26.332,27.777,47.073,54.105,54.11C114.622,610.2,306,610.2,306,610.2s191.377,0,239.108-12.785
	c26.332-7.037,47.068-27.778,54.105-54.11c12.785-47.722,12.785-147.301,12.785-147.301S611.999,296.422,599.214,248.696
	L599.214,248.696z M244.796,487.805V304.201l159,91.803L244.796,487.805L244.796,487.805z"/>
</svg>
