<?xml version="1.0" encoding="utf-8"?>
<!-- Generator: Adobe Illustrator 24.1.2, SVG Export Plug-In . SVG Version: 6.00 Build 0)  -->
<svg version="1.1" id="Capa_1" xmlns="http://www.w3.org/2000/svg" xmlns:xlink="http://www.w3.org/1999/xlink" x="0px" y="0px"
	 viewBox="0 0 23.9 24" style="enable-background:new 0 0 23.9 24;" xml:space="preserve">
<style type="text/css">
	.st0{fill:#1D1D1B;}
</style>
<path class="st0" d="M0,24l1.7-6.2c-1-1.8-1.6-3.8-1.6-5.9C0.1,5.3,5.4,0,12,0c3.2,0,6.2,1.2,8.4,3.5c2.2,2.2,3.5,5.2,3.5,8.4
	c0,6.6-5.3,11.9-11.9,11.9c-2,0-4-0.5-5.7-1.4C6.3,22.3,0,24,0,24z M18,14.7c-0.1-0.1-0.3-0.2-0.6-0.3c-0.3-0.1-1.8-0.9-2-1
	c-0.3-0.1-0.5-0.1-0.7,0.1c-0.2,0.3-0.8,1-0.9,1.2c-0.2,0.2-0.3,0.2-0.6,0.1c-0.3-0.1-1.3-0.5-2.4-1.5c-0.9-0.8-1.5-1.8-1.7-2.1
	c-0.2-0.3,0-0.5,0.1-0.6l0.4-0.5L10,9.7c0.1-0.2,0-0.4,0-0.5L9,6.9C8.8,6.3,8.5,6.4,8.4,6.4l-0.6,0C7.6,6.4,7.3,6.5,7,6.8
	s-1,1-1,2.5c0,1.5,1.1,2.9,1.2,3.1c0.1,0.2,2.1,3.2,5.1,4.5c0.7,0.3,1.3,0.5,1.7,0.6c0.7,0.2,1.4,0.2,1.9,0.1c0.6-0.1,1.8-0.7,2-1.4
	C18.1,15.4,18.1,14.9,18,14.7z"/>
</svg>
