<?xml version="1.0" encoding="utf-8"?>
<!-- Generator: Adobe Illustrator 15.1.0, SVG Export Plug-In  -->
<!DOCTYPE svg PUBLIC "-//W3C//DTD SVG 1.1//EN" "http://www.w3.org/Graphics/SVG/1.1/DTD/svg11.dtd" [
	<!ENTITY ns_flows "http://ns.adobe.com/Flows/1.0/">
]>
<svg version="1.1"
	 xmlns="http://www.w3.org/2000/svg" xmlns:xlink="http://www.w3.org/1999/xlink" xmlns:a="http://ns.adobe.com/AdobeSVGViewerExtensions/3.0/"
	 x="0px" y="0px" width="219px" height="219px" viewBox="0 0 219 219" enable-background="new 0 0 219 219" xml:space="preserve">
<defs>
</defs>
<linearGradient id="SVGID_1_" gradientUnits="userSpaceOnUse" x1="187.2031" y1="32.1201" x2="32.1197" y2="187.2035">
	<stop  offset="0.0011" style="stop-color:#FBE18A"/>
	<stop  offset="0.2094" style="stop-color:#FCBB45"/>
	<stop  offset="0.3765" style="stop-color:#F75274"/>
	<stop  offset="0.5238" style="stop-color:#D53692"/>
	<stop  offset="0.7394" style="stop-color:#8F39CE"/>
	<stop  offset="1" style="stop-color:#5B4FE9"/>
</linearGradient>
<circle fill="url(#SVGID_1_)" cx="109.66" cy="109.661" r="109.66"/>
<circle fill="#FFFFFF" cx="143.7" cy="75.713" r="7.538"/>
<path fill="#FFFFFF" d="M110.188,77.843c-17.46,0-31.665,14.204-31.665,31.664c0,17.459,14.205,31.664,31.665,31.664
	c17.459,0,31.665-14.205,31.665-31.664C141.853,92.047,127.648,77.843,110.188,77.843z M110.188,129.79
	c-11.185,0-20.284-9.099-20.284-20.283c0-11.186,9.099-20.283,20.284-20.283c11.184,0,20.282,9.098,20.282,20.283
	C130.471,120.691,121.373,129.79,110.188,129.79z"/>
<path fill="#FFFFFF" d="M135.326,173.796H83.993c-21.295,0-38.621-17.326-38.621-38.621V83.839
	c0-21.297,17.325-38.621,38.621-38.621h51.333c21.296,0,38.623,17.324,38.623,38.621v51.336
	C173.949,156.47,156.622,173.796,135.326,173.796z M83.993,57.315c-14.626,0-26.524,11.896-26.524,26.523v51.336
	c0,14.627,11.898,26.524,26.524,26.524h51.333c14.626,0,26.526-11.897,26.526-26.524V83.839c0-14.627-11.9-26.523-26.526-26.523
	H83.993z"/>
</svg>
