<?xml version="1.0" encoding="utf-8"?>
<!-- Generator: Adobe Illustrator 15.1.0, SVG Export Plug-In . SVG Version: 6.00 Build 0)  -->
<!DOCTYPE svg PUBLIC "-//W3C//DTD SVG 1.1//EN" "http://www.w3.org/Graphics/SVG/1.1/DTD/svg11.dtd">
<svg version="1.1" id="Layer_1" xmlns:serif="http://www.serif.com/"
	 xmlns="http://www.w3.org/2000/svg" xmlns:xlink="http://www.w3.org/1999/xlink" x="0px" y="0px" width="522.235px"
	 height="522.236px" viewBox="44.88 134.88 522.235 522.236" enable-background="new 44.88 134.88 522.235 522.236"
	 xml:space="preserve">
<g transform="matrix(1.01619,0,0,1.01619,44,43.8384)">
	<path fill="#999999" d="M257.825,89.591c-69.786,0-78.537,0.296-105.944,1.546c-27.35,1.249-46.029,5.592-62.375,11.944
		c-16.897,6.567-31.227,15.353-45.512,29.638c-14.285,14.285-23.072,28.615-29.638,45.512C8.003,194.577,3.66,213.256,2.411,240.606
		c-1.25,27.407-1.545,36.158-1.545,105.944s0.295,78.536,1.545,105.943c1.249,27.35,5.592,46.029,11.944,62.374
		c6.567,16.897,15.353,31.227,29.638,45.513c14.285,14.285,28.615,23.072,45.512,29.638c16.346,6.35,35.025,10.696,62.375,11.942
		c27.407,1.25,36.158,1.546,105.944,1.546c69.786,0,78.536-0.296,105.943-1.546c27.35-1.246,46.029-5.592,62.374-11.942
		c16.897-6.568,31.227-15.353,45.513-29.638c14.285-14.286,23.072-28.616,29.638-45.513c6.35-16.345,10.696-35.024,11.942-62.374
		c1.25-27.408,1.546-36.158,1.546-105.943c0-69.786-0.296-78.537-1.546-105.944c-1.246-27.35-5.592-46.029-11.942-62.374
		c-6.568-16.897-15.353-31.227-29.638-45.512c-14.286-14.285-28.616-23.072-45.513-29.638
		c-16.345-6.353-35.024-10.695-62.374-11.944C336.361,89.887,327.611,89.591,257.825,89.591z M257.825,135.891
		c68.61,0,76.738,0.261,103.834,1.498c25.052,1.143,38.658,5.329,47.714,8.847c11.992,4.661,20.554,10.23,29.545,19.222
		c8.992,8.992,14.559,17.552,19.222,29.546c3.519,9.055,7.704,22.66,8.847,47.712c1.237,27.096,1.497,35.224,1.497,103.835
		c0,68.61-0.26,76.738-1.497,103.833c-1.143,25.053-5.329,38.659-8.847,47.715c-4.662,11.992-10.23,20.554-19.222,29.545
		c-8.991,8.991-17.553,14.559-29.545,19.222c-9.056,3.517-22.66,7.703-47.714,8.846c-27.093,1.238-35.218,1.498-103.834,1.498
		s-76.741-0.26-103.834-1.498c-25.053-1.143-38.659-5.329-47.713-8.846c-11.994-4.663-20.554-10.231-29.547-19.222
		c-8.991-8.991-14.56-17.553-19.221-29.545c-3.519-9.056-7.705-22.66-8.848-47.715c-1.236-27.095-1.498-35.223-1.498-103.833
		c0-68.611,0.261-76.739,1.498-103.835c1.143-25.052,5.329-38.658,8.848-47.712c4.66-11.993,10.229-20.554,19.221-29.546
		c8.993-8.991,17.552-14.56,29.547-19.222c9.055-3.518,22.66-7.704,47.713-8.847C181.087,136.152,189.214,135.891,257.825,135.891z"
		/>
	<path fill="#999999" d="M257.825,432.203c-47.305,0-85.653-38.348-85.653-85.653s38.348-85.653,85.653-85.653
		c47.305,0,85.653,38.348,85.653,85.653S305.13,432.203,257.825,432.203z M257.825,214.597
		c-72.876,0-131.952,59.077-131.952,131.953c0,72.875,59.076,131.951,131.952,131.951c72.875,0,131.952-59.076,131.952-131.951
		S330.701,214.597,257.825,214.597z"/>
	<path fill="#999999" d="M425.826,209.385c0,17.03-13.806,30.835-30.836,30.835c-17.029,0-30.835-13.805-30.835-30.835
		s13.806-30.835,30.835-30.835C412.02,178.55,425.826,192.355,425.826,209.385z"/>
</g>
</svg>
