<?xml version="1.0" encoding="utf-8"?>
<!-- Generator: Adobe Illustrator 15.1.0, SVG Export Plug-In . SVG Version: 6.00 Build 0)  -->
<!DOCTYPE svg PUBLIC "-//W3C//DTD SVG 1.1//EN" "http://www.w3.org/Graphics/SVG/1.1/DTD/svg11.dtd">
<svg version="1.1" id="Layer_1" xmlns:serif="http://www.serif.com/"
	 xmlns="http://www.w3.org/2000/svg" xmlns:xlink="http://www.w3.org/1999/xlink" x="0px" y="0px" width="438.144px"
	 height="437.346px" viewBox="82.386 172.657 438.144 437.346" enable-background="new 82.386 172.657 438.144 437.346"
	 xml:space="preserve">
<path fill="#999999" d="M520.53,610.003V449.791c0-78.677-16.988-139.166-108.917-139.166c-44.173,0-73.798,24.222-85.904,47.188
	h-1.242v-39.938h-87.031v292.129h90.685V465.517c0-38.109,7.209-75.033,54.451-75.033c46.595,0,47.177,43.584,47.177,77.459v142.061
	H520.53L520.53,610.003z M180.477,317.875H89.592v292.129h90.884L180.477,317.875L180.477,317.875z M135.058,172.657
	c-29.16,0-52.672,23.589-52.672,52.65c0,29.067,23.513,52.655,52.672,52.655c29.045,0,52.625-23.588,52.625-52.655
	C187.683,196.247,164.103,172.657,135.058,172.657L135.058,172.657z"/>
</svg>
