<?xml version="1.0" encoding="utf-8"?>
<!-- Generator: Adobe Illustrator 15.1.0, SVG Export Plug-In . SVG Version: 6.00 Build 0)  -->
<!DOCTYPE svg PUBLIC "-//W3C//DTD SVG 1.1//EN" "http://www.w3.org/Graphics/SVG/1.1/DTD/svg11.dtd">
<svg version="1.1" id="Layer_1" xmlns:serif="http://www.serif.com/"
	 xmlns="http://www.w3.org/2000/svg" xmlns:xlink="http://www.w3.org/1999/xlink" x="0px" y="0px" width="19.95px"
	 height="19.914px" viewBox="0 0 19.95 19.914" enable-background="new 0 0 19.95 19.914" xml:space="preserve">
<path fill="#0A66C2" d="M19.951,19.914v-7.295c0-3.583-0.774-6.337-4.959-6.337c-2.011,0-3.36,1.103-3.912,2.149h-0.057V6.612H7.061
	v13.301h4.129v-6.579c0-1.735,0.328-3.417,2.479-3.417c2.122,0,2.148,1.984,2.148,3.527v6.468H19.951L19.951,19.914z M4.467,6.612
	H0.329v13.301h4.138V6.612L4.467,6.612z M2.399,0C1.071,0,0,1.074,0,2.397s1.071,2.397,2.398,2.397c1.322,0,2.396-1.074,2.396-2.397
	S3.721,0,2.399,0L2.399,0z"/>
</svg>
