<?xml version="1.0" encoding="utf-8"?>
<!-- Generator: Adobe Illustrator 15.1.0, SVG Export Plug-In  -->
<!DOCTYPE svg PUBLIC "-//W3C//DTD SVG 1.1//EN" "http://www.w3.org/Graphics/SVG/1.1/DTD/svg11.dtd" [
	<!ENTITY ns_flows "http://ns.adobe.com/Flows/1.0/">
]>
<svg version="1.1"
	 xmlns="http://www.w3.org/2000/svg" xmlns:xlink="http://www.w3.org/1999/xlink" xmlns:a="http://ns.adobe.com/AdobeSVGViewerExtensions/3.0/"
	 x="0px" y="0px" width="219px" height="219px" viewBox="0 0 219 219" enable-background="new 0 0 219 219" xml:space="preserve">
<defs>
</defs>
<linearGradient id="SVGID_1_" gradientUnits="userSpaceOnUse" x1="187.2031" y1="32.1191" x2="32.1201" y2="187.2021">
	<stop  offset="0" style="stop-color:#FF825C"/>
	<stop  offset="1" style="stop-color:#F56947"/>
</linearGradient>
<circle fill="url(#SVGID_1_)" cx="109.661" cy="109.66" r="109.661"/>
<g>
	<path fill="#FFFFFF" d="M179.065,66.349c0-1.65-1.35-3-3-3h-132c-1.65,0-3,1.35-3,3v86c0,1.65,1.35,3,3,3h132c1.65,0,3-1.35,3-3
		V66.349z M162.815,71.871c1.65,0,1.971,0.874,0.713,1.941l-51.176,43.43c-1.258,1.067-3.31,1.06-4.559-0.018L57.462,73.83
		c-1.25-1.078-0.922-1.959,0.728-1.959H162.815z M171.065,143.974c0,1.65-1.35,3-3,3h-116c-1.65,0-3-1.35-3-3v-63.07
		c0-1.65,1.014-2.108,2.253-1.019l56.089,49.316c1.239,1.089,3.274,1.098,4.522,0.019l56.866-49.16
		c1.248-1.079,2.27-0.612,2.27,1.038V143.974z"/>
</g>
</svg>
