<?xml version="1.0" encoding="utf-8"?>
<!-- Generator: Adobe Illustrator 15.1.0, SVG Export Plug-In . SVG Version: 6.00 Build 0)  -->
<!DOCTYPE svg PUBLIC "-//W3C//DTD SVG 1.1//EN" "http://www.w3.org/Graphics/SVG/1.1/DTD/svg11.dtd">
<svg version="1.1" id="Layer_1" xmlns="http://www.w3.org/2000/svg" xmlns:xlink="http://www.w3.org/1999/xlink" x="0px" y="0px"
	 width="550.8px" height="384.765px" viewBox="30.6 213.196 550.8 384.765" enable-background="new 30.6 213.196 550.8 384.765"
	 xml:space="preserve">
<title></title>
<path fill="#999999" d="M559.857,213.196H51.897c-11.778,0.136-21.265,9.702-21.297,21.481v341.741
	c0,11.896,9.645,21.542,21.542,21.542h507.959c11.803-0.134,21.299-9.74,21.299-21.542V234.677
	C581.367,222.803,571.732,213.195,559.857,213.196z M538.738,240.393L329.685,450.752c-13.143,13.148-34.455,13.153-47.604,0.011
	c-0.004-0.003-0.006-0.007-0.012-0.011L72.957,240.393H538.738z M549.857,570.763H61.897c-2.366,0-4.284-1.918-4.284-4.284V262.591
	l212.584,217.401c19.944,19.768,52.135,19.631,71.91-0.309L554.203,262.59v303.827c0.033,2.365-1.857,4.311-4.225,4.345
	C549.939,570.764,549.898,570.764,549.857,570.763z"/>
</svg>
