<?xml version="1.0" encoding="utf-8"?>
<!-- Generator: Adobe Illustrator 15.1.0, SVG Export Plug-In . SVG Version: 6.00 Build 0)  -->
<!DOCTYPE svg PUBLIC "-//W3C//DTD SVG 1.1//EN" "http://www.w3.org/Graphics/SVG/1.1/DTD/svg11.dtd">
<svg version="1.1" id="Layer_1" xmlns="http://www.w3.org/2000/svg" xmlns:xlink="http://www.w3.org/1999/xlink" x="0px" y="0px"
	 width="550.8px" height="384.764px" viewBox="30.6 213.196 550.8 384.764" enable-background="new 30.6 213.196 550.8 384.764"
	 xml:space="preserve">
<title></title>
<path fill="#555555" d="M559.857,213.196H51.897c-11.778,0.134-21.265,9.702-21.297,21.481v341.741
	c0,11.897,9.645,21.542,21.542,21.542h507.96c11.802-0.134,21.298-9.74,21.298-21.542V234.677
	C581.366,222.803,571.731,213.195,559.857,213.196z M543.737,235.393L329.685,450.752c-13.143,13.148-34.455,13.153-47.603,0.011
	c-0.004-0.003-0.007-0.007-0.011-0.011L67.957,235.393H543.737z M554.857,575.763H56.897c-2.366,0-4.284-1.918-4.284-4.284V249.591
	l217.584,222.401c19.944,19.768,52.135,19.631,71.91-0.307l217.095-222.094v321.827c0.033,2.365-1.856,4.311-4.223,4.345
	C554.939,575.764,554.898,575.764,554.857,575.763z"/>
</svg>
