<?xml version="1.0" encoding="utf-8"?>
<!-- Generator: Adobe Illustrator 15.1.0, SVG Export Plug-In  -->
<!DOCTYPE svg PUBLIC "-//W3C//DTD SVG 1.1//EN" "http://www.w3.org/Graphics/SVG/1.1/DTD/svg11.dtd" [
	<!ENTITY ns_flows "http://ns.adobe.com/Flows/1.0/">
]>
<svg version="1.1"
	 xmlns="http://www.w3.org/2000/svg" xmlns:xlink="http://www.w3.org/1999/xlink" xmlns:a="http://ns.adobe.com/AdobeSVGViewerExtensions/3.0/"
	 x="0px" y="0px" width="221px" height="231px" viewBox="0 0 221 231" enable-background="new 0 0 221 231" xml:space="preserve">
<defs>
</defs>
<path id="XMLID_1_" fill="#DBDBDB" d="M185,0c-19.575,0-35.695,16.12-35.695,35.695c0,1.919,0.384,4.222,0.768,6.141L61.794,91.348
	c-6.525-6.909-15.737-11.515-26.1-11.515C16.12,79.833,0,95.57,0,115.528c0,19.575,15.736,35.695,35.695,35.695
	c10.363,0,19.958-4.605,26.483-11.898l87.51,51.432c0,1.535-0.384,2.687-0.384,4.222c0,19.575,15.736,35.695,35.695,35.695
	c19.574,0,35.694-15.736,35.694-35.695c0-19.574-15.736-35.694-35.694-35.694c-10.747,0-20.727,4.989-27.252,12.666l-87.125-51.432
	c0.384-1.535,0.384-3.454,0.384-4.99c0-1.919,0-3.838-0.384-5.757l88.662-49.896c6.524,6.909,15.736,11.515,26.099,11.515
	c19.575,0,35.695-15.736,35.695-35.695C220.694,16.12,204.574,0,185,0L185,0z"/>
</svg>
