<?xml version="1.0" encoding="utf-8"?>
<!-- Generator: Adobe Illustrator 15.1.0, SVG Export Plug-In . SVG Version: 6.00 Build 0)  -->
<!DOCTYPE svg PUBLIC "-//W3C//DTD SVG 1.1//EN" "http://www.w3.org/Graphics/SVG/1.1/DTD/svg11.dtd">
<svg version="1.1" id="Layer_1" xmlns:serif="http://www.serif.com/"
	 xmlns="http://www.w3.org/2000/svg" xmlns:xlink="http://www.w3.org/1999/xlink" x="0px" y="0px" width="612.002px"
	 height="497.28px" viewBox="0 147.361 612.002 497.28" enable-background="new 0 147.361 612.002 497.28" xml:space="preserve">
<path fill="#999999" d="M192.462,644.641c230.944,0,357.261-191.335,357.261-357.261c0-5.435,0-10.844-0.364-16.229
	c24.571-17.774,45.784-39.781,62.644-64.993c-22.915,10.154-47.227,16.812-72.118,19.755c26.206-15.688,45.832-40.38,55.202-69.45
	c-24.646,14.625-51.613,24.933-79.729,30.478c-23.742-25.246-56.899-39.579-91.555-39.579c-68.946,0-125.682,56.734-125.682,125.68
	c0,9.564,1.093,19.102,3.254,28.416c-100.906-5.059-195.051-52.786-258.778-131.188C9.457,227.316,26.604,301.246,81.47,337.882
	c-19.979-0.591-39.53-5.981-56.989-15.716v1.591c0.017,59.543,42.37,111.296,100.735,123.086
	c-18.484,5.04-37.883,5.776-56.695,2.153c16.408,51.021,63.724,86.192,117.308,87.198C141.375,571.13,86.43,590.106,29.89,590.051
	c-9.991-0.02-19.971-0.624-29.89-1.813c57.416,36.846,124.241,56.396,192.462,56.305"/>
</svg>
