<?xml version="1.0" encoding="utf-8"?>
<!-- Generator: Adobe Illustrator 15.1.0, SVG Export Plug-In  -->
<!DOCTYPE svg PUBLIC "-//W3C//DTD SVG 1.1//EN" "http://www.w3.org/Graphics/SVG/1.1/DTD/svg11.dtd" [
	<!ENTITY ns_flows "http://ns.adobe.com/Flows/1.0/">
]>
<svg version="1.1"
	 xmlns="http://www.w3.org/2000/svg" xmlns:xlink="http://www.w3.org/1999/xlink" xmlns:a="http://ns.adobe.com/AdobeSVGViewerExtensions/3.0/"
	 x="0px" y="0px" width="219px" height="219px" viewBox="0 0 219 219" enable-background="new 0 0 219 219" xml:space="preserve">
<defs>
</defs>
<linearGradient id="SVGID_1_" gradientUnits="userSpaceOnUse" x1="187.2021" y1="32.1191" x2="32.1192" y2="187.2021">
	<stop  offset="0" style="stop-color:#33CCFF"/>
	<stop  offset="1" style="stop-color:#337FFF"/>
</linearGradient>
<circle fill="url(#SVGID_1_)" cx="109.66" cy="109.66" r="109.66"/>
<path fill="#FFFFFF" d="M170.249,72.086c-3.798,1.718-7.998,2.762-12.096,3.449c1.945-0.327,4.803-3.849,5.947-5.273
	c1.75-2.172,3.197-4.646,4.016-7.32c0.104-0.209,0.181-0.471-0.027-0.629c-0.263-0.104-0.434-0.051-0.641,0.054
	c-4.575,2.451-9.307,4.229-14.342,5.487c-0.417,0.104-0.727,0-0.988-0.262c-0.418-0.471-0.811-0.916-1.254-1.282
	c-2.117-1.801-4.387-3.213-6.947-4.256c-3.361-1.37-7.035-1.95-10.654-1.716c-3.522,0.229-6.981,1.221-10.108,2.855
	c-3.133,1.636-5.928,3.912-8.153,6.66c-2.303,2.841-4.001,6.196-4.87,9.753c-0.839,3.433-0.771,6.828-0.258,10.298
	c0.078,0.574,0.026,0.652-0.495,0.574c-19.697-2.93-36.022-9.979-49.277-25.08c-0.575-0.656-0.887-0.656-1.358,0.049
	c-5.801,8.693-2.987,22.66,4.258,29.524c0.966,0.915,1.959,1.83,3.028,2.665c-0.39,0.08-5.211-0.443-9.508-2.665
	c-0.575-0.364-0.864-0.155-0.915,0.497c-0.053,0.939,0.027,1.805,0.156,2.823c1.113,8.812,7.215,16.963,15.573,20.143
	c0.993,0.418,2.089,0.784,3.16,0.966c-1.904,0.418-3.865,0.717-9.326,0.289c-0.68-0.131-0.939,0.209-0.68,0.861
	c4.104,11.186,12.962,14.513,19.595,16.408c0.888,0.156,1.777,0.156,2.668,0.365c-0.054,0.08-0.107,0.08-0.158,0.156
	c-2.201,3.355-9.828,5.852-13.382,7.094c-6.46,2.258-13.496,3.273-20.323,2.601c-1.093-0.161-1.322-0.148-1.619,0
	c-0.3,0.185-0.038,0.446,0.313,0.729c1.386,0.915,2.796,1.727,4.233,2.51c4.337,2.299,8.858,4.129,13.585,5.435
	c24.415,6.742,51.916,1.788,70.248-16.426c14.396-14.304,19.441-34.028,19.441-53.778c0-0.773,0.914-1.199,1.455-1.607
	c3.746-2.814,6.768-6.182,9.561-9.942c0.628-0.845,0.634-1.597,0.634-1.905c0-0.053,0-0.104,0-0.104
	C170.74,71.771,170.734,71.865,170.249,72.086z"/>
</svg>
