<?xml version="1.0" encoding="utf-8"?>
<!-- Generator: Adobe Illustrator 15.1.0, SVG Export Plug-In  -->
<!DOCTYPE svg PUBLIC "-//W3C//DTD SVG 1.1//EN" "http://www.w3.org/Graphics/SVG/1.1/DTD/svg11.dtd" [
	<!ENTITY ns_flows "http://ns.adobe.com/Flows/1.0/">
]>
<svg version="1.1"
	 xmlns="http://www.w3.org/2000/svg" xmlns:xlink="http://www.w3.org/1999/xlink" xmlns:a="http://ns.adobe.com/AdobeSVGViewerExtensions/3.0/"
	 x="0px" y="0px" width="219px" height="219px" viewBox="0 0 219 219" enable-background="new 0 0 219 219" xml:space="preserve">
<defs>
</defs>
<linearGradient id="SVGID_1_" gradientUnits="userSpaceOnUse" x1="187.2021" y1="32.1191" x2="32.1191" y2="187.2022">
	<stop  offset="0" style="stop-color:#60FC7C"/>
	<stop  offset="1" style="stop-color:#4AB161"/>
</linearGradient>
<circle fill="url(#SVGID_1_)" cx="109.661" cy="109.66" r="109.661"/>
<path fill="#FFFFFF" d="M50.413,171.716l9.143-34.113c-5.176-9.34-7.901-19.807-7.901-30.43c0-34.73,28.257-62.987,62.988-62.987
	c34.731,0,62.989,28.257,62.989,62.987c0,34.732-28.257,62.989-62.989,62.989c-10.427,0-20.724-2.633-29.941-7.632L50.413,171.716z
	 M86.407,149.746l2.16,1.288c7.927,4.723,16.945,7.222,26.077,7.222c28.166,0,51.083-22.915,51.083-51.083
	s-22.917-51.081-51.083-51.081c-28.166,0-51.082,22.913-51.082,51.081c0,9.301,2.584,18.459,7.471,26.485l1.325,2.175l-5.104,19.046
	L86.407,149.746z"/>
<path fill-rule="evenodd" clip-rule="evenodd" fill="#FFFFFF" d="M138.075,115.934c-2.593-1.552-5.966-3.282-9.021-2.033
	c-2.343,0.959-3.839,4.627-5.357,6.5c-0.779,0.961-1.709,1.111-2.905,0.63c-8.796-3.503-15.536-9.376-20.39-17.466
	c-0.822-1.258-0.675-2.249,0.316-3.415c1.467-1.726,3.308-3.687,3.704-6.014c0.397-2.325-0.694-5.046-1.656-7.117
	c-1.229-2.647-2.604-6.423-5.255-7.92c-2.439-1.377-5.649-0.606-7.82,1.162c-3.749,3.053-5.558,7.835-5.503,12.576
	c0.015,1.347,0.181,2.691,0.495,3.99c0.757,3.128,2.202,6.047,3.829,8.823c1.226,2.094,2.559,4.125,3.997,6.078
	c4.705,6.391,10.558,11.944,17.335,16.096c3.386,2.074,7.034,3.893,10.811,5.141c4.235,1.399,8.009,2.856,12.583,1.987
	c4.789-0.909,9.51-3.873,11.411-8.487c0.563-1.367,0.844-2.889,0.529-4.331C144.527,119.15,140.488,117.376,138.075,115.934z"/>
</svg>
