<?xml version="1.0" encoding="utf-8"?>
<!-- Generator: Adobe Illustrator 15.1.0, SVG Export Plug-In . SVG Version: 6.00 Build 0)  -->
<!DOCTYPE svg PUBLIC "-//W3C//DTD SVG 1.1//EN" "http://www.w3.org/Graphics/SVG/1.1/DTD/svg11.dtd">
<svg version="1.1" id="Layer_1" xmlns:serif="http://www.serif.com/"
	 xmlns="http://www.w3.org/2000/svg" xmlns:xlink="http://www.w3.org/1999/xlink" x="0px" y="0px" width="612.001px"
	 height="614.941px" viewBox="0 88.53 612.001 614.941" enable-background="new 0 88.53 612.001 614.941" xml:space="preserve">
<path id="WhatsApp-Logo" fill="#999999" d="M446.204,457.038c-7.614-3.813-45.048-22.229-52.027-24.771
	c-6.978-2.541-12.054-3.811-17.13,3.813c-5.075,7.621-19.668,24.771-24.109,29.854c-4.438,5.082-8.883,5.721-16.493,1.906
	c-7.614-3.811-32.148-11.85-61.23-37.791c-22.633-20.188-37.916-45.123-42.356-52.746c-4.442-7.621-0.475-11.742,3.337-15.539
	c3.427-3.41,7.615-8.893,11.421-13.338c3.808-4.444,5.076-7.623,7.614-12.702c2.538-5.083,1.27-9.528-0.636-13.339
	c-1.902-3.812-17.129-41.29-23.474-56.536c-6.181-14.845-12.458-12.834-17.131-13.07c-4.436-0.22-9.518-0.267-14.592-0.267
	c-5.075,0-13.325,1.905-20.305,9.525c-6.978,7.623-26.647,26.045-26.647,63.519c0,37.479,27.282,73.683,31.089,78.765
	c3.807,5.082,53.688,81.984,130.067,114.967c18.164,7.846,32.35,12.529,43.404,16.039c18.239,5.795,34.837,4.979,47.957,3.016
	c14.628-2.184,45.046-18.416,51.395-36.201c6.343-17.787,6.343-33.031,4.438-36.207C458.894,462.754,453.818,460.85,446.204,457.038
	 M307.28,646.725h-0.104c-45.448-0.018-90.023-12.229-128.909-35.303l-9.25-5.49L73.16,631.079l25.586-93.461l-6.021-9.582
	C67.371,487.711,53.98,441.104,54,393.249c0.056-139.645,113.674-253.251,253.378-253.251
	c67.648,0.023,131.239,26.402,179.06,74.275c47.817,47.873,74.138,111.506,74.109,179.18
	C560.493,533.104,446.876,646.725,307.28,646.725 M522.833,177.895c-57.531-57.597-134.04-89.332-215.557-89.365
	C139.318,88.53,2.622,225.218,2.553,393.228c-0.021,53.708,14.009,106.126,40.676,152.341L0,703.471l161.536-42.373
	c44.509,24.275,94.62,37.072,145.621,37.088h0.125c167.938,0,304.647-136.701,304.719-304.714
	C612.031,312.051,580.363,235.492,522.833,177.895"/>
</svg>
