<?xml version="1.0" encoding="utf-8"?>
<!-- Generator: Adobe Illustrator 15.1.0, SVG Export Plug-In . SVG Version: 6.00 Build 0)  -->
<!DOCTYPE svg PUBLIC "-//W3C//DTD SVG 1.1//EN" "http://www.w3.org/Graphics/SVG/1.1/DTD/svg11.dtd">
<svg version="1.1" id="Layer_1" xmlns:serif="http://www.serif.com/"
	 xmlns="http://www.w3.org/2000/svg" xmlns:xlink="http://www.w3.org/1999/xlink" x="0px" y="0px" width="20.117px"
	 height="14.082px" viewBox="0 0 20.117 14.082" enable-background="new 0 0 20.117 14.082" xml:space="preserve">
<path fill="#FF0000" d="M19.697,2.199c-0.231-0.865-0.913-1.547-1.778-1.778C16.349,0,10.059,0,10.059,0s-6.291,0-7.86,0.42
	C1.333,0.652,0.651,1.333,0.42,2.199C0,3.768,0,7.041,0,7.041s0,3.273,0.42,4.842c0.231,0.865,0.913,1.547,1.778,1.779
	c1.569,0.42,7.86,0.42,7.86,0.42s6.291,0,7.86-0.42c0.866-0.231,1.547-0.913,1.778-1.779c0.42-1.569,0.42-4.842,0.42-4.842
	S20.117,3.768,19.697,2.199L19.697,2.199z M8.047,10.059V4.023l5.227,3.018L8.047,10.059L8.047,10.059z"/>
</svg>
