<?xml version="1.0" encoding="utf-8"?>
<!-- Generator: Adobe Illustrator 15.1.0, SVG Export Plug-In  -->
<!DOCTYPE svg PUBLIC "-//W3C//DTD SVG 1.1//EN" "http://www.w3.org/Graphics/SVG/1.1/DTD/svg11.dtd" [
	<!ENTITY ns_flows "http://ns.adobe.com/Flows/1.0/">
]>
<svg version="1.1"
	 xmlns="http://www.w3.org/2000/svg" xmlns:xlink="http://www.w3.org/1999/xlink" xmlns:a="http://ns.adobe.com/AdobeSVGViewerExtensions/3.0/"
	 x="0px" y="0px" width="219px" height="219px" viewBox="0 0 219 219" enable-background="new 0 0 219 219" xml:space="preserve">
<defs>
</defs>
<linearGradient id="SVGID_1_" gradientUnits="userSpaceOnUse" x1="187.2026" y1="32.1187" x2="32.1194" y2="187.2019">
	<stop  offset="0" style="stop-color:#FF0000"/>
	<stop  offset="1" style="stop-color:#850000"/>
</linearGradient>
<circle fill="url(#SVGID_1_)" cx="109.661" cy="109.66" r="109.661"/>
<path fill="#FFFFFF" d="M168.371,93.714c0-14.542-11.789-26.332-26.332-26.332H74.704c-14.543,0-26.333,11.79-26.333,26.332v31.336
	c0,14.543,11.79,26.332,26.333,26.332h67.334c14.543,0,26.332-11.789,26.332-26.332V93.714z M128.771,111.73l-30.194,14.938
	c-1.184,0.641-5.206-0.217-5.206-1.563V94.441c0-1.363,4.055-2.219,5.239-1.544l28.904,15.726
	C128.726,109.313,129.998,111.066,128.771,111.73z"/>
</svg>
