<?xml version="1.0" encoding="utf-8"?>
<!-- Generator: Adobe Illustrator 15.1.0, SVG Export Plug-In . SVG Version: 6.00 Build 0)  -->
<!DOCTYPE svg PUBLIC "-//W3C//DTD SVG 1.1//EN" "http://www.w3.org/Graphics/SVG/1.1/DTD/svg11.dtd">
<svg version="1.1" id="Layer_1" xmlns:serif="http://www.serif.com/"
	 xmlns="http://www.w3.org/2000/svg" xmlns:xlink="http://www.w3.org/1999/xlink" x="0px" y="0px" width="20.013px"
	 height="20.013px" viewBox="0.001 0.792 20.013 20.013" enable-background="new 0.001 0.792 20.013 20.013" xml:space="preserve">
<g transform="matrix(1.01619,0,0,1.01619,44,43.8384)">
	<path fill="#C73F7A" d="M-33.451-42.361c-2.674,0-3.01,0.011-4.06,0.06c-1.048,0.048-1.764,0.214-2.39,0.457
		c-0.647,0.251-1.197,0.589-1.744,1.136c-0.547,0.547-0.885,1.097-1.136,1.744c-0.244,0.627-0.41,1.343-0.457,2.39
		c-0.049,1.05-0.06,1.385-0.06,4.06c0,2.674,0.011,3.01,0.06,4.06c0.048,1.048,0.214,1.763,0.457,2.39
		c0.251,0.647,0.588,1.197,1.136,1.744c0.547,0.547,1.097,0.884,1.744,1.136c0.627,0.243,1.343,0.41,2.39,0.457
		c1.05,0.048,1.385,0.059,4.06,0.059c2.674,0,3.009-0.011,4.06-0.059c1.048-0.048,1.763-0.214,2.39-0.458
		c0.647-0.251,1.197-0.588,1.744-1.135c0.547-0.547,0.884-1.097,1.135-1.744c0.244-0.627,0.41-1.342,0.458-2.39
		c0.048-1.05,0.059-1.386,0.059-4.06c0-2.675-0.012-3.01-0.059-4.06c-0.048-1.048-0.214-1.764-0.458-2.39
		c-0.251-0.648-0.588-1.197-1.135-1.744c-0.547-0.547-1.097-0.885-1.744-1.136c-0.627-0.244-1.342-0.41-2.39-0.457
		C-30.442-42.35-30.777-42.361-33.451-42.361z M-33.451-40.587c2.629,0,2.941,0.011,3.98,0.058c0.96,0.044,1.481,0.204,1.828,0.339
		c0.459,0.179,0.788,0.392,1.132,0.737c0.345,0.345,0.558,0.673,0.737,1.132c0.135,0.347,0.295,0.868,0.339,1.828
		c0.047,1.039,0.057,1.35,0.057,3.98c0,2.629-0.01,2.94-0.057,3.979c-0.044,0.96-0.204,1.481-0.339,1.828
		c-0.179,0.459-0.392,0.788-0.737,1.132c-0.345,0.345-0.673,0.558-1.132,0.737c-0.347,0.135-0.869,0.295-1.828,0.339
		c-1.039,0.048-1.35,0.057-3.98,0.057s-2.941-0.01-3.979-0.057c-0.96-0.044-1.481-0.204-1.829-0.339
		c-0.459-0.179-0.787-0.392-1.132-0.737c-0.345-0.345-0.558-0.673-0.737-1.132c-0.135-0.347-0.296-0.868-0.339-1.828
		c-0.048-1.039-0.058-1.35-0.058-3.98c0-2.629,0.01-2.94,0.058-3.979c0.044-0.96,0.204-1.481,0.339-1.828
		c0.179-0.459,0.392-0.788,0.737-1.132c0.345-0.345,0.673-0.558,1.132-0.737c0.347-0.135,0.869-0.295,1.829-0.339
		C-36.392-40.576-36.08-40.587-33.451-40.587z"/>
	<path fill="#C73F7A" d="M-33.451-29.231c-1.813,0-3.282-1.469-3.282-3.283c0-1.812,1.469-3.282,3.282-3.282
		c1.813,0,3.283,1.47,3.283,3.283C-30.168-30.7-31.638-29.231-33.451-29.231z M-33.451-37.57c-2.793,0-5.057,2.264-5.057,5.057
		c0,2.793,2.264,5.057,5.057,5.057c2.793,0,5.057-2.264,5.057-5.056C-28.394-35.306-30.658-37.57-33.451-37.57z"/>
	<path fill="#C73F7A" d="M-27.013-37.77c0,0.653-0.529,1.182-1.182,1.182c-0.653,0-1.182-0.529-1.182-1.182
		c0-0.653,0.529-1.182,1.182-1.182C-27.542-38.951-27.013-38.422-27.013-37.77z"/>
</g>
</svg>
