<?xml version="1.0" encoding="utf-8"?>
<!-- Generator: Adobe Illustrator 15.1.0, SVG Export Plug-In . SVG Version: 6.00 Build 0)  -->
<!DOCTYPE svg PUBLIC "-//W3C//DTD SVG 1.1//EN" "http://www.w3.org/Graphics/SVG/1.1/DTD/svg11.dtd">
<svg version="1.1" id="Layer_1" xmlns:serif="http://www.serif.com/"
	 xmlns="http://www.w3.org/2000/svg" xmlns:xlink="http://www.w3.org/1999/xlink" x="0px" y="0px" width="612px" height="497.281px"
	 viewBox="0 147.359 612 497.281" enable-background="new 0 147.359 612 497.281" xml:space="preserve">
<path fill="#4295DA" d="M192.462,644.641c230.944,0,357.261-191.335,357.261-357.261c0-5.434,0-10.844-0.366-16.23
	c24.573-17.775,45.786-39.782,62.644-64.994c-22.915,10.154-47.227,16.812-72.118,19.755c26.206-15.688,45.832-40.38,55.202-69.45
	c-24.646,14.625-51.613,24.933-79.73,30.478c-23.742-25.246-56.899-39.579-91.553-39.579c-68.948,0-125.682,56.734-125.682,125.68
	c0,9.565,1.093,19.1,3.254,28.416c-100.906-5.058-195.051-52.786-258.778-131.188C9.456,227.315,26.603,301.245,81.469,337.881
	c-19.979-0.591-39.53-5.982-56.989-15.716v1.591c0.017,59.543,42.37,111.296,100.735,123.086
	c-18.484,5.04-37.883,5.776-56.695,2.153c16.408,51.022,63.724,86.192,117.308,87.198C141.375,571.13,86.43,590.106,29.89,590.051
	c-9.991-0.02-19.971-0.624-29.89-1.813c57.416,36.846,124.241,56.396,192.462,56.305"/>
</svg>
