<?xml version="1.0" encoding="utf-8"?>
<!-- Generator: Adobe Illustrator 15.1.0, SVG Export Plug-In . SVG Version: 6.00 Build 0)  -->
<!DOCTYPE svg PUBLIC "-//W3C//DTD SVG 1.1//EN" "http://www.w3.org/Graphics/SVG/1.1/DTD/svg11.dtd">
<svg version="1.1" id="Layer_1" xmlns:serif="http://www.serif.com/"
	 xmlns="http://www.w3.org/2000/svg" xmlns:xlink="http://www.w3.org/1999/xlink" x="0px" y="0px" width="20.039px"
	 height="16.282px" viewBox="0 5.36 20.039 16.282" enable-background="new 0 5.36 20.039 16.282" xml:space="preserve">
<path fill="#4295DA" d="M6.301,21.642c7.562,0,11.697-6.265,11.697-11.697c0-0.178,0-0.355-0.011-0.532
	c0.804-0.582,1.499-1.302,2.051-2.128c-0.75,0.333-1.546,0.55-2.361,0.647c0.858-0.514,1.5-1.322,1.808-2.274
	c-0.808,0.479-1.69,0.816-2.611,0.998C16.096,5.829,15.01,5.36,13.875,5.36c-2.257,0-4.115,1.857-4.115,4.115
	c0,0.313,0.036,0.625,0.106,0.931C6.563,10.24,3.481,8.677,1.394,6.11c-1.084,1.868-0.523,4.289,1.273,5.488
	c-0.654-0.02-1.294-0.196-1.866-0.515v0.053c0,1.949,1.387,3.644,3.298,4.029c-0.605,0.166-1.241,0.19-1.856,0.071
	c0.537,1.67,2.086,2.822,3.841,2.855c-1.455,1.144-3.254,1.765-5.106,1.763c-0.327,0-0.653-0.021-0.979-0.059
	c1.88,1.207,4.068,1.847,6.302,1.843"/>
</svg>
