<?xml version="1.0" encoding="utf-8"?>
<!-- Generator: Adobe Illustrator 15.1.0, SVG Export Plug-In . SVG Version: 6.00 Build 0)  -->
<!DOCTYPE svg PUBLIC "-//W3C//DTD SVG 1.1//EN" "http://www.w3.org/Graphics/SVG/1.1/DTD/svg11.dtd">
<svg version="1.1" id="Layer_1" xmlns:serif="http://www.serif.com/"
	 xmlns="http://www.w3.org/2000/svg" xmlns:xlink="http://www.w3.org/1999/xlink" x="0px" y="0px" width="19.992px"
	 height="20.088px" viewBox="0 1.53 19.992 20.088" enable-background="new 0 1.53 19.992 20.088" xml:space="preserve">
<path id="WhatsApp-Logo" fill="#25D366" d="M14.575,13.567c-0.249-0.125-1.471-0.726-1.699-0.809
	c-0.228-0.083-0.394-0.125-0.56,0.124c-0.166,0.25-0.643,0.81-0.787,0.976c-0.146,0.166-0.291,0.187-0.539,0.062
	c-0.249-0.124-1.05-0.387-2-1.234c-0.74-0.66-1.239-1.474-1.384-1.724c-0.145-0.249-0.016-0.383,0.109-0.507
	c0.112-0.112,0.249-0.291,0.374-0.436c0.124-0.145,0.166-0.249,0.249-0.415C8.42,9.438,8.379,9.293,8.316,9.169
	C8.254,9.044,7.757,7.82,7.549,7.322C7.348,6.837,7.143,6.903,6.99,6.895C6.845,6.888,6.679,6.886,6.513,6.886
	c-0.166,0-0.435,0.063-0.663,0.312C5.622,7.446,4.979,8.048,4.979,9.272s0.892,2.407,1.016,2.573
	c0.125,0.166,1.754,2.678,4.249,3.755c0.593,0.256,1.057,0.409,1.418,0.524c0.596,0.189,1.138,0.163,1.566,0.099
	c0.478-0.071,1.472-0.602,1.679-1.183c0.208-0.581,0.208-1.079,0.145-1.183C14.99,13.754,14.824,13.692,14.575,13.567
	 M10.038,19.764h-0.003c-1.484,0-2.941-0.399-4.211-1.153l-0.302-0.179L2.39,19.252L3.226,16.2l-0.197-0.313
	c-0.828-1.317-1.266-2.84-1.265-4.403c0.001-4.562,3.713-8.273,8.276-8.273c2.21,0.001,4.287,0.863,5.849,2.426
	c1.562,1.564,2.422,3.643,2.421,5.853C18.309,16.052,14.597,19.764,10.038,19.764 M17.079,4.449
	C15.199,2.568,12.7,1.531,10.038,1.53c-5.487,0-9.952,4.465-9.954,9.953c-0.001,1.754,0.458,3.467,1.329,4.977L0,21.618l5.277-1.385
	c1.454,0.793,3.091,1.211,4.757,1.212h0.004c5.486,0,9.952-4.466,9.954-9.954C19.993,8.831,18.958,6.331,17.079,4.449"/>
</svg>
