<?xml version="1.0" encoding="utf-8"?>
<!-- Generator: Adobe Illustrator 15.1.0, SVG Export Plug-In . SVG Version: 6.00 Build 0)  -->
<!DOCTYPE svg PUBLIC "-//W3C//DTD SVG 1.1//EN" "http://www.w3.org/Graphics/SVG/1.1/DTD/svg11.dtd">
<svg version="1.1" id="Layer_1" xmlns:serif="http://www.serif.com/"
	 xmlns="http://www.w3.org/2000/svg" xmlns:xlink="http://www.w3.org/1999/xlink" x="0px" y="0px" width="612px" height="614.942px"
	 viewBox="0 88.53 612 614.942" enable-background="new 0 88.53 612 614.942" xml:space="preserve">
<path id="WhatsApp-Logo" fill="#25D366" d="M446.204,457.037c-7.614-3.811-45.048-22.228-52.027-24.771
	c-6.978-2.541-12.054-3.81-17.13,3.811c-5.075,7.621-19.668,24.773-24.109,29.854c-4.44,5.081-8.883,5.72-16.495,1.905
	c-7.614-3.81-32.148-11.85-61.23-37.791c-22.633-20.188-37.916-45.122-42.356-52.745c-4.442-7.622-0.475-11.743,3.337-15.539
	c3.427-3.411,7.615-8.893,11.421-13.339c3.808-4.444,5.076-7.623,7.614-12.702c2.538-5.083,1.27-9.528-0.636-13.338
	c-1.902-3.811-17.129-41.289-23.474-56.536c-6.181-14.845-12.458-12.834-17.131-13.07c-4.436-0.22-9.518-0.267-14.592-0.267
	c-5.075,0-13.325,1.905-20.305,9.525c-6.978,7.623-26.647,26.045-26.647,63.519c0,37.479,27.282,73.681,31.089,78.764
	c3.807,5.082,53.688,81.986,130.069,114.966c18.164,7.847,32.348,12.53,43.404,16.039c18.239,5.796,34.837,4.979,47.957,3.017
	c14.628-2.184,45.046-18.417,51.393-36.201c6.343-17.788,6.343-33.032,4.44-36.208C458.894,462.755,453.818,460.85,446.204,457.037
	 M307.28,646.725h-0.103c-45.448-0.018-90.023-12.228-128.909-35.303l-9.25-5.489l-95.857,25.146l25.586-93.461l-6.021-9.583
	c-25.354-40.324-38.745-86.931-38.725-134.787c0.056-139.643,113.674-253.251,253.378-253.251
	c67.648,0.023,131.239,26.402,179.059,74.275c47.818,47.873,74.137,111.506,74.11,179.18
	C560.493,533.104,446.876,646.725,307.28,646.725 M522.833,177.895c-57.531-57.597-134.04-89.332-215.557-89.365
	C139.318,88.53,2.622,225.218,2.553,393.228c-0.021,53.708,14.009,106.126,40.676,152.34L0,703.472l161.536-42.374
	c44.509,24.276,94.62,37.072,145.621,37.089h0.125c167.94,0,304.649-136.703,304.719-304.715
	C612.031,312.051,580.363,235.492,522.833,177.895"/>
</svg>
