<?xml version="1.0" encoding="utf-8"?>
<!-- Generator: Adobe Illustrator 15.1.0, SVG Export Plug-In . SVG Version: 6.00 Build 0)  -->
<!DOCTYPE svg PUBLIC "-//W3C//DTD SVG 1.1//EN" "http://www.w3.org/Graphics/SVG/1.1/DTD/svg11.dtd">
<svg version="1.1" id="Layer_1" xmlns:serif="http://www.serif.com/"
	 xmlns="http://www.w3.org/2000/svg" xmlns:xlink="http://www.w3.org/1999/xlink" x="0px" y="0px" width="479.999px" height="336px"
	 viewBox="80 72 479.999 336" enable-background="new 80 72 479.999 336" xml:space="preserve">
<path fill="#FF0000" d="M549.972,124.467c-5.52-20.653-21.783-36.916-42.437-42.436C470.1,72,320,72,320,72s-150.1,0-187.537,10.031
	c-20.649,5.52-36.916,21.783-42.435,42.436C80,161.9,80,240.003,80,240.003s0,78.102,10.028,115.53
	c5.519,20.652,21.786,36.92,42.435,42.439C169.9,408,320,408,320,408s150.1,0,187.535-10.027
	c20.653-5.52,36.917-21.787,42.437-42.439c10.027-37.429,10.027-115.53,10.027-115.53S559.999,161.9,549.972,124.467
	L549.972,124.467z M271.997,312.004V168.001l124.705,72.002L271.997,312.004L271.997,312.004z"/>
</svg>
