<svg xmlns="http://www.w3.org/2000/svg" width="78" height="59"><path fill="#B4C6D1" d="M31.073 8.023c-3.142 2.292-5.688 4.819-7.641 7.577-1.955 2.759-3.312 5.624-4.075 8.596 5.603 0 10.079 1.572 13.435 4.711 3.354 3.141 5.031 7.303 5.031 12.48 0 5.011-1.783 9.232-5.349 12.672-3.565 3.438-7.939 5.156-13.116 5.156-5.775 0-10.442-1.952-14.009-5.857C1.783 49.455 0 44.36 0 38.077 0 31.2 2.102 24.432 6.304 17.766 10.507 11.101 16.428 5.179 24.069 0l7.004 8.023zm40.265 0c-3.229 2.547-5.752 5.115-7.577 7.704a25.152 25.152 0 00-3.884 8.469c5.518 0 9.933 1.572 13.244 4.711 3.311 3.141 4.967 7.303 4.967 12.48 0 5.011-1.783 9.232-5.35 12.672-3.565 3.438-7.939 5.156-13.116 5.156-5.774 0-10.442-1.952-14.009-5.857-3.565-3.903-5.348-8.998-5.348-15.281 0-6.877 2.101-13.646 6.303-20.312C50.771 11.101 56.648 5.179 64.207 0l7.131 8.023z"/></svg>