<svg xmlns="http://www.w3.org/2000/svg" width="78" height="59"><path fill="#B4C6D1" d="M47.015 51.192c3.142-2.292 5.688-4.819 7.641-7.577 1.955-2.759 3.312-5.624 4.075-8.596-5.603 0-10.079-1.572-13.435-4.711-3.354-3.141-5.031-7.303-5.031-12.48 0-5.011 1.783-9.232 5.349-12.672C49.18 1.719 53.554 0 58.73 0c5.775 0 10.442 1.952 14.009 5.857 3.565 3.903 5.349 8.998 5.349 15.281 0 6.877-2.102 13.646-6.304 20.312-4.203 6.665-10.124 12.587-17.766 17.766l-7.003-8.024zm-40.265 0c3.229-2.547 5.752-5.115 7.577-7.704a25.152 25.152 0 003.884-8.469c-5.518 0-9.933-1.572-13.244-4.711C1.656 27.167 0 23.005 0 17.828c0-5.011 1.783-9.232 5.35-12.672C8.915 1.719 13.289 0 18.466 0c5.774 0 10.442 1.952 14.009 5.857 3.565 3.903 5.348 8.998 5.348 15.281 0 6.877-2.101 13.646-6.303 20.312-4.203 6.665-10.08 12.587-17.639 17.766L6.75 51.192z"/></svg>