<svg xmlns="http://www.w3.org/2000/svg" width="522.234" height="522.235" viewBox="44.88 134.88 522.234 522.235"><g fill="#C73F7A"><path d="M305.998 134.88c-70.915 0-79.807.3-107.658 1.57-27.793 1.27-46.774 5.683-63.385 12.138-17.17 6.674-31.732 15.602-46.249 30.118-14.516 14.516-23.445 29.078-30.118 46.249-6.455 16.61-10.869 35.592-12.138 63.385-1.27 27.85-1.57 36.743-1.57 107.659s.3 79.808 1.57 107.658c1.27 27.793 5.683 46.774 12.137 63.384 6.674 17.17 15.602 31.733 30.118 46.25 14.517 14.516 29.079 23.445 46.25 30.118 16.61 6.452 35.591 10.869 63.384 12.134 27.85 1.27 36.743 1.571 107.66 1.571s79.806-.3 107.657-1.57c27.793-1.266 46.774-5.683 63.383-12.135 17.172-6.675 31.733-15.602 46.25-30.118 14.517-14.517 23.446-29.08 30.119-46.25 6.45-16.61 10.87-35.59 12.134-63.384 1.27-27.851 1.57-36.743 1.57-107.658 0-70.916-.3-79.808-1.57-107.66-1.265-27.792-5.683-46.773-12.134-63.383-6.675-17.17-15.602-31.733-30.119-46.249-14.517-14.516-29.078-23.445-46.25-30.118-16.61-6.456-35.59-10.868-63.383-12.137-27.85-1.271-36.741-1.572-107.658-1.572zm0 47.05c69.722 0 77.98.265 105.516 1.522 25.457 1.161 39.283 5.415 48.487 8.99 12.185 4.736 20.887 10.396 30.023 19.533 9.139 9.138 14.795 17.836 19.533 30.025 3.576 9.201 7.828 23.026 8.99 48.483 1.259 27.535 1.522 35.795 1.522 105.516 0 69.72-.263 77.98-1.521 105.515-1.163 25.458-5.417 39.284-8.99 48.488-4.737 12.185-10.395 20.886-19.534 30.023-9.136 9.137-17.838 14.794-30.023 19.533-9.203 3.573-23.027 7.827-48.487 8.99-27.531 1.257-35.788 1.52-105.516 1.52-69.726 0-77.982-.263-105.514-1.52-25.458-1.163-39.285-5.417-48.485-8.99-12.189-4.74-20.887-10.397-30.026-19.533-9.136-9.137-14.795-17.838-19.532-30.023-3.576-9.204-7.83-23.027-8.991-48.488C92.194 473.98 91.928 465.72 91.928 396c0-69.722.265-77.981 1.522-105.516 1.16-25.458 5.415-39.284 8.99-48.484 4.736-12.188 10.395-20.887 19.532-30.025 9.139-9.136 17.836-14.796 30.026-19.533 9.201-3.575 23.027-7.829 48.485-8.99 27.535-1.257 35.793-1.523 105.514-1.523z"/><path d="M305.998 483.039c-48.07 0-87.039-38.97-87.039-87.04s38.97-87.04 87.04-87.04c48.071 0 87.04 38.97 87.04 87.04s-38.968 87.04-87.04 87.04zm0-221.13c-74.055 0-134.087 60.034-134.087 134.09 0 74.055 60.032 134.087 134.087 134.087 74.056 0 134.09-60.032 134.09-134.087s-60.033-134.09-134.09-134.09zm170.722-5.296c0 17.306-14.03 31.336-31.335 31.336s-31.334-14.03-31.334-31.336 14.03-31.334 31.334-31.334 31.334 14.029 31.334 31.334z"/></g></svg>