<svg xmlns="http://www.w3.org/2000/svg" width="20.013" height="20.013" viewBox="0.001 0.792 20.013 20.013"><g fill="#C73F7A"><path d="M10.007.792c-2.717 0-3.058.01-4.125.06-1.065.05-1.793.218-2.429.465A4.903 4.903 0 001.681 2.47 4.903 4.903 0 00.526 4.244C.278 4.88.11 5.608.062 6.672.012 7.74.001 8.08.001 10.798c0 2.717.011 3.059.061 4.126.049 1.065.217 1.791.464 2.428a4.89 4.89 0 001.155 1.773 4.917 4.917 0 001.772 1.154c.637.247 1.365.417 2.429.464 1.067.05 1.407.06 4.125.06s3.058-.01 4.126-.06c1.065-.048 1.792-.217 2.429-.465a4.9 4.9 0 001.772-1.153 4.9 4.9 0 001.153-1.773c.248-.637.417-1.363.466-2.428.049-1.067.06-1.409.06-4.126 0-2.718-.012-3.059-.06-4.126-.049-1.065-.218-1.792-.466-2.428a4.892 4.892 0 00-1.153-1.773 4.903 4.903 0 00-1.772-1.154c-.637-.248-1.364-.417-2.429-.464-1.068-.05-1.408-.061-4.126-.061zm0 1.802c2.672 0 2.989.011 4.045.06.975.044 1.505.207 1.857.344a3.1 3.1 0 011.15.749c.351.35.568.684.75 1.15.137.353.3.882.344 1.858.048 1.055.058 1.371.058 4.044 0 2.672-.01 2.988-.058 4.043-.045.976-.207 1.505-.344 1.858a3.1 3.1 0 01-.75 1.15c-.35.35-.683.567-1.15.75-.352.136-.883.3-1.857.344-1.056.049-1.372.058-4.045.058s-2.988-.01-4.043-.058c-.976-.045-1.505-.208-1.859-.345a3.108 3.108 0 01-1.15-.749 3.108 3.108 0 01-.749-1.15c-.137-.353-.3-.882-.344-1.858-.05-1.055-.06-1.371-.06-4.044 0-2.672.01-2.988.06-4.043.044-.976.207-1.505.344-1.858a3.1 3.1 0 01.75-1.15c.35-.35.683-.567 1.15-.75.352-.136.882-.3 1.858-.344 1.055-.048 1.372-.059 4.043-.059z"/><path d="M10.007 14.134a3.335 3.335 0 110-6.671 3.336 3.336 0 010 6.671zm0-8.474a5.139 5.139 0 100 10.278 5.139 5.139 0 000-10.278zm6.543-.203a1.2 1.2 0 11-2.402 0 1.2 1.2 0 012.402 0z"/></g></svg>