<svg xmlns="http://www.w3.org/2000/svg" width="36.723" height="18.947"><path fill="#D00" d="M12.267 13.146v2.602h-2.115v3.003H6.895v-3.003H.317L0 13.251c3.934-5.795 6.141-9.038 6.62-9.729l3.532.317v9.306h2.115zm-9.095 0h3.765V7.563l-3.765 5.583z"/><path fill="#00B786" d="M25.497 9.624v2.601h-2.115v3.004h-3.257v-3.004h-6.578l-.317-2.496C17.164 3.934 19.37.691 19.85 0l3.532.317v9.306h2.115v.001zm-9.094 0h3.765V4.04l-3.765 5.584z"/><path fill="#06C" d="M36.723 16.367v2.581H25.789v-2.581a252.19 252.19 0 002.517-2.052c.578-.479 1.216-1.04 1.914-1.681s1.209-1.164 1.534-1.565c.324-.402.599-.832.825-1.29.225-.458.338-.892.338-1.301 0-.648-.226-1.163-.677-1.544-.452-.381-1.051-.571-1.798-.571-.338 0-.67.032-.994.095a6.29 6.29 0 00-.74.18l-.232.106-.212 1.798h-2.221l-.106-3.913c1.594-.563 3.145-.846 4.653-.846 1.833 0 3.253.321 4.262.962 1.008.642 1.512 1.709 1.512 3.204 0 .719-.124 1.41-.37 2.073-.247.663-.659 1.351-1.237 2.062-.578.712-1.188 1.375-1.83 1.988s-1.491 1.378-2.548 2.295h6.344z"/><path fill="#4A4A4D" d="M13.252 16.888h10.155v1.908H13.252z"/></svg>