<svg xmlns="http://www.w3.org/2000/svg" width="260.223" height="58.833"><path d="M259.59 46.712l.633-12.09-2.436-.221c-1.899 7.263-5.456 9.876-13.299 9.876-2.874 0-3.702-.133-3.702-2.348V19.387c0-1.771.39-2.346 2.484-2.346h3.069v-2.304h-19.291v2.304h2.533c2.144 0 2.436.575 2.436 2.346v22.675c0 1.771-.39 2.303-2.484 2.303h-2.484v2.347h32.541zm-33.912-31.975h-19.145v2.304h2.68c2.143 0 2.483.575 2.483 2.346v22.675c0 1.771-.39 2.303-2.483 2.303h-2.68v2.347h19.145v-2.347h-2.776c-2.095 0-2.436-.531-2.436-2.303V19.387c0-1.771.341-2.346 2.436-2.346h2.776v-2.304zm-21.88 0h-31.81v2.304h2.484c2.144 0 2.484.575 2.484 2.346v22.675c0 1.771-.39 2.303-2.484 2.303h-2.484v2.347h19.534v-2.347h-3.506c-2.095 0-2.436-.531-2.436-2.303V31.39h.682c4.287 0 6.089 1.682 6.917 6.111h2.436V22.842h-2.436c-.829 4.429-2.583 6.156-6.917 6.156h-.682V19.52c0-2.214.73-2.392 3.555-2.392 7.454 0 10.816 2.348 12.667 9.123h2.387l-.391-11.514zm-57.052 16.608c.683-.044 1.364-.044 1.949-.044 5.603 0 6.625 1.462 6.966 6.333.146 2.436-.244 4.738 1.023 6.864 1.168 1.993 3.556 3.011 7.063 3.011 5.115 0 8.135-2.833 8.135-7.794v-.354h-2.484c-.048 2.878-.633 4.339-2.046 4.339-2.192 0-1.704-3.277-3.117-7.174-1.267-3.543-3.946-5.447-7.502-5.536v-.31c6.917-.221 10.863-3.188 10.863-7.838 0-5.27-4.432-8.104-13.104-8.104H133.01v2.304h2.63c1.9 0 2.485.487 2.485 2.346v22.675c0 1.86-.585 2.303-2.485 2.303h-2.63v2.347h18.804v-2.347h-2.631c-1.851 0-2.436-.399-2.436-2.303V31.345zm0-11.868c0-2.17.537-2.436 3.751-2.436 5.797 0 8.184 1.328 8.184 5.934 0 4.738-2.922 6.111-9.889 6.111-.682 0-1.315 0-2.046-.088v-9.521zM97.05 46.712h32.834l.634-12.001-2.437-.177c-1.899 7.351-5.603 9.92-13.786 9.92-2.972 0-3.703-.221-3.703-2.392V31.39h.682c4.287 0 6.089 1.682 6.917 6.111h2.436V22.842h-2.436c-.828 4.429-2.582 6.156-6.917 6.156h-.682v-9.611c0-2.214.73-2.391 3.557-2.391 7.501 0 10.912 2.391 12.666 9.255h2.387l-.39-11.514H97.05v2.304h2.436c2.144 0 2.485.575 2.485 2.346v22.675c0 1.771-.39 2.303-2.485 2.303H97.05v2.347zm-22.611-4.65v-9.079c1.754.044 3.361.044 4.871.044 10.864 0 16.174-2.879 16.174-9.212 0-5.934-4.579-9.079-13.396-9.079H60.605v2.304h2.631c2.143 0 2.484.575 2.484 2.346v22.675c0 1.771-.39 2.303-2.484 2.303h-2.631v2.347h19.291v-2.347h-3.069c-1.997.001-2.388-.442-2.388-2.302zm0-22.232c0-2.479.584-2.789 3.8-2.789 5.699 0 7.94 1.638 7.94 6.775 0 5.359-2.68 6.776-9.305 6.776-1.071 0-1.851-.044-2.436-.133V19.83z"/><circle fill="#557C9C" cx="29.417" cy="29.417" r="29.417"/><path fill="#FFF" d="M25.96 29.776c-.049-.007-.108-.108-.108-.108-.142-.271-.077-1.204.251-2.665.39-1.743 1.885-3.183 3.256-3.804.986-.446 3.146-1.25 4.755-1.684 1.954-.526 6.157-1.516 6.157-1.516s2.149-.498 3.837-.789c1.579-.272 3.152-.432 3.783-.628 1.076-.335 2.188-.65 3.072-1.402-.697.571.189-.122.044-.053.1-.096.139-.096.192-.168 0 0 .888-.903.727-1.617-.161-.714-1.407-.595-1.407-.595s-2.571.016-3.357.111c-.788.096-.898.349-1.428.841-.53.492-.944.798-1.795.83-.852.032-4.904-.575-6.592-.56-1.687.016-4.802-.016-9.027.938-1.084.245-2.736.692-4.932 1.667 0 0-1.805.667-3.135 2.262 0 0-.717.887-.773 3.202-.017.69.408 1.94-.031 2.383-.614.618-2.286.454-2.847.372-1.25-.186-2.326-.724-2.568-.882-.443-.291-1.285-.94-1.392-1.764-.266-2.029-.797-2.879-2.212-3.016 0 0-.866-.055-2.934.549 0 0-1.131.316-1.992.413-.861.096-1.906.056-1.906.289 0 .233.625.303 2.359.248 1.735-.054 2.872.122 3.677.671 0 0 .86.411 1.318 1.989.458 1.578.292 1.989 1.027 2.387 0 0 1.804.933 3.705 1.578s1.928 2.192 1.97 2.536c.042.343.127 2.677.155 3.404s.485 2.662 1.872 4.417c0 0 .912 1.582 4.27 3.365 3.229 1.569 3.259 1.426 3.977 1.748.709.319 1.701.758 1.98 1.114.201.256.696.854 1.083.896.388.043 11.958.087 11.958.087s.774.031.38-.848c-.245-.549-.763-1.204-1.523-1.56-.727-.34-1.25-.677-2.971-.974-1.72-.298-3.632-.718-5.74-1.547-2.108-.83-4.664-2.714-5.632-3.543-.968-.83-2.465-2.007-2.831-3.729 0 0-.166-.776.383-1.745 0 0 .252-.317.768-.367 0 0 .964.061 1.783.108.82.047 2.675.289 3.751.4 1.076.111 4.952.705 6.253.975 1.301.27 6.066 1.611 6.708 1.786.643.175 3.934 1.479 4.287 1.051 0 0 .049-.057.213-.462.237-.589 1.465-7.607 1.465-7.607s.155-.918-1.029-.961c-.74-.027-1.183-.218-2.26-.155-1.076.063-2.695.243-5.329.703-2.634.461-5.429 1.135-5.429 1.135s-1.114.338-3.623.723c-2.146.329-5.662.047-6.289-.179.002-.003-.199-.11-.324-.25"/></svg>