<?xml version="1.0" encoding="utf-8"?>
<!-- Generator: Adobe Illustrator 15.1.0, SVG Export Plug-In . SVG Version: 6.00 Build 0)  -->
<!DOCTYPE svg PUBLIC "-//W3C//DTD SVG 1.1//EN" "http://www.w3.org/Graphics/SVG/1.1/DTD/svg11.dtd">
<svg version="1.1" id="Layer_1" xmlns="http://www.w3.org/2000/svg" xmlns:xlink="http://www.w3.org/1999/xlink" x="0px" y="0px"
	 width="26.031px" height="26.031px" viewBox="0 0 26.031 26.031" enable-background="new 0 0 26.031 26.031" xml:space="preserve">
<title></title>
<g id="Layer_2">
	<path fill="#0072C7" d="M13.091,25.658c-6.982-0.001-12.643-5.66-12.643-12.643S6.108,0.374,13.091,0.374
		c6.981,0,12.642,5.661,12.642,12.642C25.732,19.998,20.072,25.658,13.091,25.658z"/>
	<path fill="#FFFFFF" d="M13.016,14.018c-2.766,0-5.007-2.243-5.007-5.007c0-2.764,2.241-5.006,5.007-5.006
		c2.765,0,5.006,2.241,5.006,5.006C18.022,11.776,15.781,14.018,13.016,14.018z"/>
	<path fill="#FFFFFF" d="M13.172,25.547C6.341,25.516,3.149,20.71,2.797,20.282c-0.531-0.579,0.185-1.171,0.517-1.54
		c2.479-2.396,5.793-3.732,9.241-3.725h0.921c3.736,0.008,7.301,1.575,9.832,4.324c0.376,0.405,0.352,1.039-0.054,1.415
		C23.07,20.93,20.003,25.578,13.172,25.547z"/>
	<path fill="#0072C7" d="M13.016,26.031C5.828,26.031,0,20.204,0,13.016C0,5.827,5.828,0,13.016,0
		c7.188,0,13.016,5.828,13.016,13.016C26.031,20.204,20.204,26.031,13.016,26.031z M13.016,1.172
		c-6.542,0-11.844,5.303-11.844,11.843c0,6.542,5.303,11.842,11.844,11.842c6.54,0,11.843-5.301,11.843-11.842
		C24.859,6.476,19.556,1.172,13.016,1.172z"/>
</g>
</svg>
