<svg xmlns="http://www.w3.org/2000/svg" width="26.031" height="26.031"><path fill="#0072C7" d="M13.091 25.658C6.109 25.657.448 19.998.448 13.015S6.108.374 13.091.374c6.981 0 12.642 5.661 12.642 12.642-.001 6.982-5.661 12.642-12.642 12.642z"/><path fill="#FFF" d="M13.016 14.018a5.007 5.007 0 110-10.015 5.007 5.007 0 010 10.015zm.156 11.529c-6.831-.031-10.023-4.837-10.375-5.265-.531-.579.185-1.171.517-1.54a13.257 13.257 0 019.241-3.725h.921a13.405 13.405 0 019.832 4.324 1 1 0 01-.054 1.415c-.184.174-3.251 4.822-10.082 4.791z"/><path fill="#0072C7" d="M13.016 26.031C5.828 26.031 0 20.204 0 13.016 0 5.827 5.828 0 13.016 0s13.016 5.828 13.016 13.016c-.001 7.188-5.828 13.015-13.016 13.015zm0-24.859c-6.542 0-11.844 5.303-11.844 11.843 0 6.542 5.303 11.842 11.844 11.842 6.54 0 11.843-5.301 11.843-11.842 0-6.539-5.303-11.843-11.843-11.843z"/></svg>