<?xml version="1.0" encoding="utf-8"?>
<!-- Generator: Adobe Illustrator 15.0.0, SVG Export Plug-In . SVG Version: 6.00 Build 0)  -->
<!DOCTYPE svg PUBLIC "-//W3C//DTD SVG 1.1//EN" "http://www.w3.org/Graphics/SVG/1.1/DTD/svg11.dtd">
<svg version="1.1" id="Capa_1" xmlns="http://www.w3.org/2000/svg" xmlns:xlink="http://www.w3.org/1999/xlink" x="0px" y="0px"
	 width="293.637px" height="65.76px" viewBox="0 0 293.637 65.76" enable-background="new 0 0 293.637 65.76" xml:space="preserve">
<circle fill="#627C97" cx="32.88" cy="32.879" r="32.88"/>
<g>
	<g>
		<path fill="#FFFFFF" d="M292.922,52.702l0.715-13.65l-2.75-0.25c-2.145,8.201-6.16,11.15-15.016,11.15
			c-3.244,0-4.18-0.15-4.18-2.65V21.852c0-2,0.439-2.65,2.805-2.65h3.465v-2.6h-21.779v2.6h2.859c2.42,0,2.75,0.65,2.75,2.65v25.6
			c0,2-0.439,2.6-2.805,2.6h-2.805v2.65H292.922z M254.633,16.602h-21.615v2.6h3.025c2.42,0,2.805,0.65,2.805,2.65v25.6
			c0,2-0.439,2.6-2.805,2.6h-3.025v2.65h21.615v-2.65h-3.135c-2.365,0-2.75-0.6-2.75-2.6v-25.6c0-2,0.385-2.65,2.75-2.65h3.135
			V16.602z M229.93,16.602h-35.914v2.6h2.805c2.42,0,2.805,0.65,2.805,2.65v25.6c0,2-0.439,2.6-2.805,2.6h-2.805v2.65h22.055v-2.65
			h-3.959c-2.365,0-2.75-0.6-2.75-2.6V35.403c0.273,0,0.494,0,0.77,0c4.84,0,6.875,1.898,7.811,6.898h2.75V25.752h-2.75
			c-0.936,5-2.916,6.949-7.811,6.949c-0.275,0-0.496,0-0.77,0V22.002c0-2.5,0.824-2.701,4.014-2.701
			c8.416,0,12.211,2.65,14.301,10.301h2.695L229.93,16.602z M165.516,35.352c0.771-0.051,1.541-0.051,2.201-0.051
			c6.324,0,7.48,1.65,7.865,7.15c0.164,2.75-0.275,5.35,1.154,7.75c1.32,2.25,4.016,3.4,7.975,3.4c5.775,0,9.186-3.199,9.186-8.801
			c0-0.148,0-0.25,0-0.398h-2.805c-0.055,3.25-0.715,4.898-2.311,4.898c-2.475,0-1.924-3.699-3.52-8.1
			c-1.43-4-4.455-6.15-8.471-6.25v-0.35c7.811-0.25,12.266-3.6,12.266-8.85c0-5.951-5.004-9.15-14.795-9.15h-24.256v2.6h2.971
			c2.145,0,2.805,0.551,2.805,2.65v25.6c0,2.1-0.66,2.6-2.805,2.6h-2.971v2.65h21.23v-2.65h-2.971c-2.09,0-2.75-0.449-2.75-2.6
			V35.352z M165.516,21.952c0-2.449,0.605-2.75,4.236-2.75c6.545,0,9.24,1.5,9.24,6.701c0,5.35-3.301,6.898-11.166,6.898
			c-0.77,0-1.484,0-2.311-0.1V21.952z M109.408,52.702h37.07l0.716-13.549l-2.751-0.201c-2.145,8.301-6.325,11.201-15.564,11.201
			c-3.355,0-4.181-0.25-4.181-2.701V35.403c0.275,0,0.495,0,0.771,0c4.84,0,6.875,1.898,7.81,6.898h2.75V25.752h-2.75
			c-0.935,5-2.915,6.949-7.81,6.949c-0.275,0-0.495,0-0.771,0v-10.85c0-2.5,0.825-2.701,4.016-2.701c8.47,0,12.32,2.701,14.3,10.451
			h2.695l-0.44-13h-35.86v2.6h2.75c2.421,0,2.806,0.65,2.806,2.65v25.6c0,2-0.44,2.6-2.806,2.6h-2.75V52.702z M83.879,47.452v-10.25
			c1.98,0.051,3.795,0.051,5.5,0.051c12.266,0,18.261-3.25,18.261-10.4c0-6.699-5.17-10.25-15.125-10.25H68.26v2.6h2.97
			c2.42,0,2.805,0.65,2.805,2.65v25.6c0,2-0.44,2.6-2.805,2.6h-2.97v2.65h21.78v-2.65h-3.465
			C84.32,50.051,83.879,49.551,83.879,47.452z M83.879,22.352c0-2.801,0.66-3.15,4.291-3.15c6.435,0,8.965,1.85,8.965,7.65
			c0,6.051-3.025,7.65-10.506,7.65c-1.209,0-2.09-0.051-2.75-0.15V22.352z"/>
	</g>
</g>
<path fill="#FFFFFF" d="M29.145,33.581c-0.056-0.008-0.122-0.123-0.122-0.123c-0.16-0.305-0.087-1.358,0.283-3.008
	c0.44-1.968,2.128-3.594,3.677-4.295c1.114-0.504,3.551-1.412,5.368-1.902c2.206-0.594,6.952-1.711,6.952-1.711
	s2.426-0.563,4.333-0.891c1.783-0.308,3.559-0.488,4.271-0.711c1.215-0.378,2.47-0.733,3.469-1.582
	c-0.787,0.645,0.214-0.139,0.05-0.061c0.112-0.107,0.157-0.107,0.217-0.189c0,0,1.002-1.02,0.82-1.826s-1.589-0.672-1.589-0.672
	s-2.903,0.018-3.791,0.125c-0.889,0.108-1.014,0.395-1.612,0.95c-0.599,0.556-1.066,0.901-2.027,0.937
	c-0.961,0.036-5.537-0.648-7.442-0.631c-1.904,0.018-5.422-0.018-10.192,1.058c-1.225,0.276-3.089,0.782-5.568,1.883
	c0,0-2.038,0.754-3.54,2.554c0,0-0.81,1.001-0.873,3.615c-0.019,0.779,0.46,2.191-0.035,2.69c-0.693,0.697-2.581,0.513-3.214,0.419
	c-1.411-0.209-2.626-0.816-2.899-0.996c-0.501-0.328-1.451-1.062-1.572-1.991c-0.3-2.29-0.9-3.251-2.498-3.405
	c0,0-0.978-0.063-3.313,0.62c0,0-1.278,0.356-2.249,0.466c-0.972,0.108-2.151,0.063-2.151,0.326s0.706,0.342,2.664,0.279
	c1.958-0.061,3.243,0.139,4.151,0.758c0,0,0.971,0.465,1.488,2.246s0.33,2.245,1.16,2.694c0,0,2.037,1.054,4.183,1.782
	c2.146,0.728,2.177,2.475,2.224,2.863c0.047,0.387,0.144,3.021,0.175,3.842c0.031,0.821,0.547,3.006,2.114,4.988
	c0,0,1.03,1.785,4.821,3.799c3.646,1.771,3.68,1.609,4.49,1.974c0.801,0.36,1.921,0.856,2.235,1.258
	c0.227,0.29,0.786,0.965,1.223,1.013c0.438,0.049,13.501,0.098,13.501,0.098s0.874,0.035,0.429-0.957
	c-0.277-0.619-0.862-1.359-1.719-1.761c-0.821-0.384-1.412-0.765-3.354-1.101s-4.101-0.811-6.48-1.746
	c-2.38-0.937-5.266-3.064-6.359-4c-1.092-0.938-2.783-2.266-3.196-4.21c0,0-0.187-0.876,0.433-1.97c0,0,0.285-0.358,0.867-0.414
	c0,0,1.089,0.068,2.014,0.121c0.925,0.055,3.02,0.326,4.235,0.452c1.215,0.125,5.591,0.796,7.06,1.101s6.849,1.818,7.574,2.016
	c0.726,0.197,4.441,1.67,4.841,1.188c0,0,0.055-0.064,0.241-0.522c0.268-0.665,1.654-8.589,1.654-8.589s0.175-1.037-1.162-1.085
	c-0.835-0.03-1.335-0.247-2.551-0.175c-1.215,0.072-3.043,0.273-6.017,0.794s-6.129,1.282-6.129,1.282s-1.257,0.381-4.09,0.814
	c-2.423,0.372-6.393,0.054-7.101-0.201C29.512,33.86,29.286,33.739,29.145,33.581"/>
</svg>
