<svg xmlns="http://www.w3.org/2000/svg" width="885.237" height="360.75" viewBox="-154.495 60 885.237 360.75"><path fill="#555" d="M428 420.75H283.25c-6.75 0-12-5.25-12-12 0-18.75-9-29.25-22.5-45.75-7.5-9-15.75-19.5-24-32.25C202.25 294 182 252 177.5 235.5s-1.5-26.25 3-32.25c5.25-7.5 14.25-11.25 24.75-11.25 14.25 0 29.25 12 42 27.75V96c0-20.25 16.5-36 36-36s36 16.5 36 36v50.25c3.75-1.5 7.5-2.25 12-2.25 12.75 0 24 6.75 30.75 16.5 5.25-3 11.25-4.5 18-4.5 16.5 0 30.75 11.25 34.5 26.25 3.75-1.5 8.25-2.25 13.5-2.25 20.25 0 36 16.5 36 36v36c0 30.75-6 56.25-12 80.25-6 24.75-12 47.25-12 75.75 0 6.75-5.25 12.75-12 12.75zm302.742-265.882l-64.235 84.467c-7.296 10.909-22.051 13.839-32.961 6.544-10.889-7.28-13.833-21.999-6.582-32.905l30.799-34.344h-81.087c-13.125 0-23.762-10.639-23.762-23.762 0-13.123 10.637-23.762 23.762-23.762h81.087l-30.799-34.343c-7.18-10.985-4.094-25.71 6.892-32.89 10.845-7.086 25.364-4.183 32.647 6.529l64.239 84.466zm-885.237.155l64.236-84.467c7.295-10.909 22.051-13.839 32.96-6.543 10.89 7.28 13.833 21.998 6.583 32.904l-30.799 34.344H-.428c13.125 0 23.762 10.639 23.762 23.762S12.697 178.785-.428 178.785h-81.087l30.799 34.343c7.18 10.985 4.094 25.71-6.892 32.89-10.845 7.086-25.365 4.183-32.648-6.529l-64.239-84.466z"/></svg>