<svg xmlns="http://www.w3.org/2000/svg" width="612" height="497.281" viewBox="0 147.359 612 497.281"><path fill="#4295DA" d="M192.462 644.641c230.944 0 357.261-191.335 357.261-357.261 0-5.434 0-10.844-.366-16.23a255.48 255.48 0 0062.644-64.994 250.672 250.672 0 01-72.118 19.755 126.02 126.02 0 0055.202-69.45 251.657 251.657 0 01-79.73 30.478 125.73 125.73 0 00-91.553-39.579c-68.948 0-125.682 56.734-125.682 125.68 0 9.565 1.093 19.1 3.254 28.416-100.906-5.058-195.051-52.786-258.778-131.188-33.14 57.047-15.993 130.977 38.873 167.613a124.608 124.608 0 01-56.989-15.716v1.591c.017 59.543 42.37 111.296 100.735 123.086a125.395 125.395 0 01-56.695 2.153c16.408 51.022 63.724 86.192 117.308 87.198A252.005 252.005 0 0129.89 590.051 255.424 255.424 0 010 588.238a355.507 355.507 0 00192.462 56.305"/></svg>