<svg xmlns="http://www.w3.org/2000/svg" width="20.039" height="16.282" viewBox="0 5.36 20.039 16.282"><path fill="#4295DA" d="M6.301 21.642c7.562 0 11.697-6.265 11.697-11.697 0-.178 0-.355-.011-.532a8.367 8.367 0 002.051-2.128c-.75.333-1.546.55-2.361.647a4.133 4.133 0 001.808-2.274 8.256 8.256 0 01-2.611.998 4.119 4.119 0 00-2.999-1.296c-2.257 0-4.115 1.857-4.115 4.115 0 .313.036.625.106.931A11.68 11.68 0 011.394 6.11a4.133 4.133 0 001.273 5.488 4.087 4.087 0 01-1.866-.515v.053a4.122 4.122 0 003.298 4.029 4.086 4.086 0 01-1.856.071 4.124 4.124 0 003.841 2.855 8.247 8.247 0 01-6.085 1.704 11.627 11.627 0 006.302 1.843"/></svg>