<svg xmlns="http://www.w3.org/2000/svg" width="479.999" height="336" viewBox="80 72 479.999 336"><path fill="red" d="M549.972 124.467c-5.52-20.653-21.783-36.916-42.437-42.436C470.1 72 320 72 320 72s-150.1 0-187.537 10.031c-20.649 5.52-36.916 21.783-42.435 42.436C80 161.9 80 240.003 80 240.003s0 78.102 10.028 115.53c5.519 20.652 21.786 36.92 42.435 42.439C169.9 408 320 408 320 408s150.1 0 187.535-10.027c20.653-5.52 36.917-21.787 42.437-42.439 10.027-37.429 10.027-115.53 10.027-115.53s0-78.104-10.027-115.537zM271.997 312.004V168.001l124.705 72.002-124.705 72.001z"/></svg>