<?xml version="1.0" encoding="utf-8"?>
<!-- Generator: Adobe Illustrator 15.0.0, SVG Export Plug-In . SVG Version: 6.00 Build 0)  -->
<!DOCTYPE svg PUBLIC "-//W3C//DTD SVG 1.1//EN" "http://www.w3.org/Graphics/SVG/1.1/DTD/svg11.dtd">
<svg version="1.1" id="Layer_1" xmlns="http://www.w3.org/2000/svg" xmlns:xlink="http://www.w3.org/1999/xlink" x="0px" y="0px"
	 width="345.629px" height="156.397px" viewBox="0 0 345.629 156.397" enable-background="new 0 0 345.629 156.397"
	 xml:space="preserve">
<g>
	<path fill="#FFFFFF" d="M32.868,0c21.03,0,33.024,13.084,33.024,35.101v21.185H39.567V35.931c0-8.93-1.713-12.877-6.699-12.877
		c-4.984,0-6.542,3.947-6.542,12.877v82.665c0,8.933,1.558,12.879,6.542,12.879c4.985,0,6.699-3.946,6.699-12.879v-23.47h26.326
		v23.47c0,24.301-11.683,37.802-33.024,37.802C8.101,156.397,0,141.651,0,109.458V47.146C0,14.954,8.101,0,32.868,0z"/>
	<path fill="#FFFFFF" d="M94.896,92.426l2.336-27.832c1.247-14.954,2.493-29.285,3.427-42.786h0.935
		c1.091,21.601,1.87,34.063,2.025,37.594l1.402,33.024H94.896z M65.922,152.866h22.432l4.05-36.763h14.487l2.025,36.763h27.416
		l-16.2-149.544H85.238L65.922,152.866z"/>
	<path fill="#FFFFFF" d="M177.551,51.093c0,8.1-3.427,12.255-10.593,12.255c-0.778,0-1.713,0-2.648-0.209V24.508
		c0.935,0,1.714-0.207,2.493-0.207c7.321,0,10.748,3.53,10.748,11.63V51.093z M177.551,103.019v21.602
		c0,12.669,0.156,21.809,2.804,28.246h27.416c-3.737-9.553-3.894-16.823-3.894-23.261c0-0.831,0-1.87,0-2.702V99.694
		c0-19.523-5.919-26.999-20.251-27.416v-0.829c13.085-2.078,20.251-11.84,20.251-30.534c0-28.869-7.01-37.593-32.713-37.593h-33.18
		v149.544h26.325V84.948c0.935,0,1.87-0.207,2.648-0.207C175.837,84.741,177.551,89.102,177.551,103.019z"/>
	<path fill="#FFFFFF" d="M238.21,92.426l2.337-27.832c1.246-14.954,2.492-29.285,3.427-42.786h0.935
		c1.091,21.601,1.87,34.063,2.025,37.594l1.402,33.024H238.21z M209.237,152.866h22.432l4.05-36.763h14.487l2.025,36.763h27.415
		L263.447,3.322h-34.894L209.237,152.866z"/>
	<path fill="#FFFFFF" d="M345.629,115.48c0,27.416-9.813,40.71-33.803,40.71c-22.587,0-33.023-11.632-33.023-37.595v-23.47h26.325
		v23.47c0,8.933,1.714,12.879,6.698,12.879c4.829,0,6.854-4.155,6.854-12.879c0-5.191-0.156-9.345-3.115-13.084L286.747,67.71
		c-7.009-9.14-8.724-17.239-8.724-30.325c0-24.093,12.308-37.178,34.116-37.178c21.963,0,33.023,11.839,33.023,35.102v21.6h-26.326
		V35.931c0-8.93-1.713-12.877-6.697-12.877c-5.608,0-7.633,4.362-7.633,12.877c0,3.531,1.402,7.685,3.894,11.009l28.819,38.633
		C343.761,94.503,345.629,103.226,345.629,115.48z"/>
</g>
</svg>
