<?xml version="1.0" standalone="no"?>
<!DOCTYPE svg PUBLIC "-//W3C//DTD SVG 20010904//EN"
 "http://www.w3.org/TR/2001/REC-SVG-20010904/DTD/svg10.dtd">
<svg version="1.0" xmlns="http://www.w3.org/2000/svg"
 width="372.000000pt" height="50.000000pt" viewBox="0 0 372.000000 50.000000"
 preserveAspectRatio="xMidYMid meet">

<g transform="translate(0.000000,50.000000) scale(0.100000,-0.100000)"
fill="#000000" stroke="none">
<path d="M880 470 c-27 -27 -25 -55 6 -79 51 -40 124 -17 124 39 0 55 -88 82
-130 40z"/>
<path d="M1175 405 c-60 -46 -111 -89 -113 -94 -2 -6 8 -13 21 -16 24 -6 25
-11 29 -98 3 -59 10 -103 21 -123 28 -54 127 -86 204 -65 53 14 73 34 73 71 0
32 -23 50 -64 50 -22 0 -25 5 -31 55 -9 71 -1 105 26 105 36 0 59 19 59 49 0
30 -15 41 -55 41 -25 0 -35 22 -35 78 0 19 -5 32 -12 32 -7 -1 -62 -39 -123
-85z"/>
<path d="M1957 479 c-9 -6 -29 -32 -42 -60 l-25 -49 73 0 c86 0 117 16 117 60
0 49 -73 78 -123 49z"/>
<path d="M153 341 c-45 -11 -93 -42 -117 -74 -31 -42 -30 -140 2 -185 39 -53
94 -76 189 -76 68 -1 86 3 110 20 15 12 29 32 31 46 3 24 2 25 -68 24 -65 -1
-74 1 -92 24 l-20 25 88 5 c108 6 118 11 111 57 -15 93 -131 159 -234 134z
m121 -97 c11 -29 6 -34 -39 -34 -49 0 -50 1 -35 31 13 24 65 26 74 3z"/>
<path d="M495 340 c-28 -11 -44 -31 -51 -67 -4 -23 0 -36 21 -61 l27 -32 -31
-35 c-37 -43 -39 -74 -8 -111 31 -36 74 -36 121 -1 40 31 49 33 67 11 7 -8 25
-22 41 -30 51 -26 118 19 118 81 0 8 -13 30 -30 48 -16 19 -30 38 -30 42 0 4
12 21 26 38 30 36 26 70 -12 105 -33 29 -62 28 -104 -3 -19 -14 -34 -25 -35
-25 -1 0 -16 11 -35 25 -36 26 -52 29 -85 15z"/>
<path d="M883 336 c-17 -8 -36 -23 -42 -35 -6 -11 -11 -69 -11 -129 0 -126 14
-156 76 -168 45 -8 110 11 124 36 5 10 10 70 10 134 0 105 -2 117 -23 141 -27
32 -88 42 -134 21z"/>
<path d="M1558 340 c-74 -22 -118 -84 -118 -165 0 -65 24 -111 75 -140 151
-89 324 11 300 172 -15 104 -140 168 -257 133z m109 -136 c15 -24 15 -29 2
-53 -21 -37 -70 -37 -83 1 -23 65 44 108 81 52z"/>
<path d="M1903 336 c-17 -8 -36 -23 -42 -35 -6 -11 -11 -69 -11 -129 0 -126
14 -156 76 -168 45 -8 110 11 124 36 5 10 10 70 10 134 0 105 -2 117 -23 141
-27 32 -88 42 -134 21z"/>
<path d="M2155 340 c-12 -4 -27 -15 -34 -24 -17 -21 -27 -221 -12 -259 22 -57
125 -71 170 -23 16 17 21 37 23 95 2 57 7 76 21 85 33 21 52 -4 55 -75 3 -95
9 -109 47 -125 44 -18 90 -9 115 24 17 21 20 40 20 124 0 110 -12 147 -55 166
-54 25 -136 9 -187 -35 -14 -13 -17 -12 -23 6 -13 40 -88 63 -140 41z"/>
<path d="M2690 335 c-64 -21 -87 -57 -55 -89 12 -12 22 -13 45 -4 35 12 77 4
103 -19 29 -27 20 -33 -47 -33 -54 0 -69 -4 -94 -25 -38 -32 -46 -65 -28 -109
24 -57 112 -70 162 -24 18 16 22 17 27 4 8 -20 79 -38 114 -30 15 4 38 16 51
27 20 18 22 30 22 111 0 106 -17 150 -69 180 -44 26 -168 32 -231 11z m115
-205 c8 -27 -12 -52 -39 -48 -21 3 -32 28 -22 54 8 22 54 18 61 -6z"/>
</g>
</svg>
