<?xml version="1.0" encoding="utf-8"?>
<!-- Generator: Adobe Illustrator 15.0.0, SVG Export Plug-In . SVG Version: 6.00 Build 0)  -->
<!DOCTYPE svg PUBLIC "-//W3C//DTD SVG 1.1//EN" "http://www.w3.org/Graphics/SVG/1.1/DTD/svg11.dtd">
<svg version="1.1" id="Capa_1" xmlns="http://www.w3.org/2000/svg" xmlns:xlink="http://www.w3.org/1999/xlink" x="0px" y="0px"
	 width="2264.91px" height="248.311px" viewBox="0 0 2264.91 248.311" enable-background="new 0 0 2264.91 248.311"
	 xml:space="preserve">
<g>
	<g>
		<path fill="#0076B8" d="M2217.741,68.954c-4.336-1.358-8.499-2.179-12.482-2.447c-3.993-0.272-7.938-0.09-11.835,0.539
			c-3.902,0.643-8.281,1.772-13.139,3.406c-7.975,2.539-14.138,7.797-18.472,15.775c-4.334,7.979-6.496,16.593-6.496,25.841
			c-0.693,7.615,0,14.326,2.071,20.129c2.082,5.803,4.944,11.11,8.588,15.91c3.644,4.811,7.938,9.206,12.875,13.196
			c4.943,3.99,9.844,7.932,14.697,11.832c4.854,3.9,9.537,7.848,14.051,11.826c4.504,3.996,8.233,8.351,11.183,13.063
			c1.038,2.172,1.434,3.9,1.173,5.168c-0.261,1.269-0.784,2.313-1.563,3.129c-0.779,0.813-1.733,1.495-2.86,2.039
			c-1.132,0.545-2.037,0.999-2.73,1.361c-3.471,1.813-8.237,1.63-14.309-0.548c-3.123-1.633-5.591-3.26-7.411-4.893
			c-1.82-1.634-3.257-3.404-4.295-5.307c-1.044-1.905-1.95-3.986-2.73-6.257c-0.773-2.267-1.689-4.941-2.728-8.027h-26.012v60.659
			h18.726c1.385-3.438,3.465-5.892,6.242-7.339c2.946-1.089,5.677-0.957,8.194,0.406c2.513,1.36,4.981,2.581,7.412,3.673
			c4.162,1.995,8.622,3.164,13.396,3.535c4.772,0.358,9.495,0.132,14.178-0.679c4.684-0.816,9.188-2.134,13.528-3.948
			c4.328-1.811,8.237-4.076,11.701-6.798c3.644-2.723,6.588-6.029,8.846-9.928c2.253-3.901,3.984-8.064,5.205-12.516
			c1.205-4.441,1.904-9.068,2.081-13.872c0.171-4.8,0.081-9.563-0.261-14.284c-1.04-6.343-2.951-11.826-5.724-16.455
			c-2.775-4.621-6.071-8.793-9.883-12.514c-3.818-3.709-7.938-7.154-12.361-10.336c-4.416-3.17-8.757-6.388-13-9.654
			c-4.254-3.26-8.236-6.753-11.97-10.468c-3.732-3.721-6.721-7.938-8.973-12.651c-0.87-2.536-0.69-4.624,0.521-6.256
			c1.211-1.633,2.687-2.896,4.425-3.808c3.287-1.085,6.498-0.906,9.621,0.542c2.948,1.454,5.291,2.816,7.028,4.08
			c1.729,1.273,3.16,2.59,4.287,3.947c1.125,1.358,2.034,2.901,2.731,4.621c0.69,1.727,1.472,3.677,2.342,5.851h22.368V69.366
			h-18.986l-4.423,5.437C2227.016,72.267,2222.073,70.317,2217.741,68.954 M2077.014,140.087v-6.257
			c0-4.354,0.307-9.113,0.916-14.281c0.603-5.168,1.776-9.789,3.508-13.875c1.734-4.079,4.334-6.026,7.808-5.847
			c4.51,0,8.021,2.903,10.532,8.703c2.513,5.805,3.774,16.142,3.774,31.009L2077.014,140.087z M2111.357,242.361
			c7.106-3.441,13.48-8.252,19.115-14.416c5.635-6.163,10.362-13.558,14.176-22.171c3.813-8.609,6.506-18.085,8.066-28.421h-48.129
			c0,5.802-0.346,10.517-1.034,14.146c-0.696,3.631-1.607,6.433-2.732,8.428c-1.132,1.998-2.433,3.313-3.903,3.945
			c-1.472,0.637-2.987,0.863-4.549,0.682c-3.816-0.179-6.766-1.995-8.848-5.446c-2.082-3.438-3.553-7.429-4.424-11.963
			c-0.863-4.534-1.256-9.112-1.166-13.738c0.086-4.624,0.476-8.295,1.166-11.014h73.619c0-12.517-1.605-24.523-4.814-36.045
			c-3.213-11.515-7.67-21.71-13.394-30.602c-5.726-8.877-12.487-15.998-20.293-21.35c-7.803-5.347-16.297-8.026-25.491-8.026
			c-9.193,0-17.772,2.359-25.75,7.077c-7.977,4.713-14.957,11.148-20.936,19.312c-5.991,8.156-10.713,17.727-14.178,28.697
			c-3.479,10.97-5.209,22.712-5.209,35.226c0,12.507,1.73,24.303,5.209,35.357c3.465,11.063,8.187,20.72,14.178,28.972
			c5.979,8.255,12.959,14.735,20.936,19.449c7.978,4.714,16.557,7.07,25.75,7.07C2096.7,247.529,2104.241,245.8,2111.357,242.361
			 M1916.135,75.073c-1.477-1.445-2.992-2.626-4.555-3.535c-4.507-2.72-9.273-4.392-14.303-5.031
			c-5.033-0.634-10.103-0.542-15.217,0.269c-5.113,0.82-10.104,2.179-14.957,4.08c-4.854,1.908-9.457,3.948-13.787,6.125
			l-1.045-7.893h-55.397v36.455c2.946,1.085,5.288,2.578,7.022,4.485c1.729,1.902,3.288,4.308,4.68,7.208v72.354
			c-0.35,2.542-1.437,4.534-3.25,5.988c-1.818,1.446-4.466,2.99-7.932,4.618v44.61h67.627v-45.151
			c-2.08-0.906-3.947-1.811-5.59-2.72c-1.652-0.905-2.646-2.811-2.996-5.715V116.15c1.731-3.438,3.518-6.16,5.332-8.158
			c1.818-1.992,4.896-2.813,9.238-2.447c3.122,0.358,5.547,1.543,7.286,3.535c1.731,1.992,3.55,4.713,5.458,8.159v73.983
			c-0.522,2.545-1.52,4.262-2.99,5.168c-1.48,0.912-3.863,2.18-7.154,3.808v44.61h66.594v-44.61
			c-2.602-0.542-4.555-1.263-5.855-2.172c-1.301-0.902-2.558-2.812-3.769-5.712l-0.521-71.813c0.521-2.174,0.86-4.166,1.035-5.985
			c0.174-1.806,0.651-3.445,1.436-4.893c0.777-1.454,2.078-2.59,3.9-3.404c1.819-0.813,4.551-1.223,8.193-1.223
			c3.29,0.183,5.762,0.679,7.408,1.499c1.65,0.815,2.861,1.901,3.643,3.266c0.786,1.357,1.348,2.898,1.696,4.621
			c0.34,1.726,0.86,3.58,1.562,5.578v70.721c-0.351,2.542-1.347,4.489-2.99,5.851c-1.657,1.357-3.864,2.577-6.637,3.667v44.61h66.59
			v-45.7c-3.469-0.537-5.981-1.175-7.543-1.901c-1.562-0.718-3.293-2.357-5.203-4.894V120.5c0.35-4.353,0.299-9.065-0.133-14.145
			c-0.431-5.075-1.297-9.929-2.597-14.55c-1.301-4.627-3.041-8.796-5.202-12.517c-2.173-3.714-4.815-6.299-7.933-7.752
			c-5.384-2.72-11.062-4.438-17.039-5.168c-5.983-0.725-11.969-0.628-17.946,0.274c-5.982,0.909-11.798,2.494-17.433,4.758
			c-5.635,2.271-10.623,5.027-14.957,8.301C1918.867,78.063,1917.609,76.532,1916.135,75.073 M1741.463,3.263
			c-3.113,1.457-5.847,3.397-8.186,5.85c-2.349,2.446-4.211,5.352-5.597,8.703c-1.391,3.359-2.082,6.934-2.082,10.743
			c0,7.618,2.513,14.061,7.546,19.314c5.024,5.261,11.181,7.884,18.467,7.884c3.643,0,7.061-0.718,10.272-2.174
			c3.209-1.444,5.984-3.4,8.326-5.848c2.342-2.446,4.199-5.3,5.596-8.565c1.382-3.263,2.082-6.801,2.082-10.611
			c0-7.794-2.52-14.319-7.543-19.584c-5.037-5.258-11.278-7.884-18.733-7.884C1747.969,1.092,1744.588,1.815,1741.463,3.263
			 M1718.054,68.546v36.449c5.554,1.995,9.628,5.895,12.229,11.696v72.356c-0.351,2.539-1.437,4.717-3.251,6.529
			c-1.818,1.813-4.643,3.528-8.452,5.168v44.061h73.613v-44.061c-2.952-0.551-5.59-1.64-7.936-3.267
			c-2.345-1.633-4.466-4.259-6.37-7.89V68.546H1718.054z M1588.779,244.807h94.939v-45.151c-3.115-0.722-5.547-1.313-7.279-1.769
			c-1.733-0.448-3.121-0.951-4.162-1.498c-1.04-0.542-1.95-1.221-2.733-2.037c-0.774-0.815-1.779-2.04-2.99-3.673V49.776
			c0-1.988,0.609-3.17,1.824-3.531c1.208-0.362,3.463-0.547,6.762-0.547c3.287,1.997,5.545,5.396,6.767,10.201
			c1.211,4.807,1.813,9.479,1.813,14.007v34.006h30.701V0h-156.075v104.455l30.435-0.544V69.904c0-2.177-0.089-4.259-0.261-6.253
			c-0.18-1.994,0-3.944,0.521-5.85c0.521-1.902,1.562-3.849,3.122-5.847c1.562-1.995,3.983-4.08,7.286-6.257
			c3.287,0,5.238,0.274,5.851,0.815c0.601,0.542,0.912,2.354,0.912,5.44v138.726c-1.218,1.633-2.303,2.856-3.254,3.673
			c-0.957,0.816-2.037,1.496-3.254,2.037c-1.216,0.547-2.692,1.05-4.418,1.498c-1.738,0.455-3.903,1.047-6.507,1.769V244.807
			L1588.779,244.807z"/>
		<path fill="#FFFFFF" d="M1466.53,69.031c-4.339-1.361-8.503-2.185-12.489-2.453c-3.993-0.27-7.932-0.084-11.835,0.55
			c-3.903,0.631-8.284,1.762-13.136,3.395c-7.979,2.54-14.135,7.791-18.465,15.771c-4.344,7.979-6.506,16.587-6.506,25.829
			c-0.69,7.614,0,14.319,2.078,20.122c2.082,5.803,4.941,11.102,8.584,15.904c3.644,4.805,7.938,9.2,12.883,13.189
			c4.935,3.987,9.836,7.926,14.692,11.826c4.849,3.896,9.531,7.845,14.045,11.828c4.511,3.983,8.236,8.336,11.187,13.049
			c1.044,2.177,1.43,3.899,1.17,5.168c-0.261,1.268-0.781,2.312-1.563,3.123c-0.779,0.818-1.73,1.501-2.861,2.042
			c-1.125,0.547-2.037,1.002-2.729,1.36c-3.473,1.813-8.237,1.627-14.308-0.544c-3.126-1.627-5.595-3.266-7.415-4.898
			c-1.821-1.627-3.251-3.393-4.288-5.3c-1.041-1.902-1.957-3.983-2.737-6.25c-0.78-2.268-1.687-4.941-2.728-8.021H1404.1v60.636
			h18.727c1.391-3.442,3.472-5.893,6.244-7.34c2.948-1.092,5.68-0.957,8.191,0.4c2.512,1.36,4.979,2.584,7.411,3.673
			c4.163,1.995,8.631,3.164,13.404,3.535c4.759,0.358,9.49,0.132,14.168-0.679c4.688-0.816,9.196-2.134,13.53-3.945
			c4.334-1.807,8.229-4.076,11.706-6.795c3.643-2.72,6.589-6.023,8.841-9.924c2.252-3.895,3.988-8.065,5.204-12.508
			c1.211-4.44,1.901-9.067,2.082-13.872c0.17-4.8,0.084-9.556-0.262-14.271c-1.04-6.347-2.952-11.826-5.725-16.45
			s-6.074-8.787-9.878-12.507c-3.822-3.715-7.938-7.16-12.358-10.331c-4.427-3.17-8.763-6.388-13.007-9.651
			c-4.253-3.266-8.24-6.75-11.97-10.471c-3.729-3.708-6.72-7.926-8.972-12.642c-0.871-2.533-0.697-4.627,0.52-6.261
			c1.218-1.627,2.692-2.892,4.424-3.798c3.293-1.089,6.505-0.905,9.627,0.538c2.943,1.454,5.285,2.813,7.018,4.083
			c1.73,1.266,3.166,2.581,4.298,3.939c1.125,1.357,2.036,2.9,2.728,4.621c0.694,1.726,1.473,3.676,2.342,5.85h22.368V69.438
			h-18.984l-4.423,5.432C1475.804,72.336,1470.858,70.389,1466.53,69.031 M1325.806,140.128v-6.25c0-4.353,0.304-9.11,0.906-14.275
			c0.604-5.168,1.776-9.789,3.519-13.869c1.73-4.08,4.329-6.022,7.797-5.844c4.514,0,8.021,2.898,10.537,8.697
			c2.509,5.809,3.772,16.139,3.772,30.997L1325.806,140.128z M1360.135,242.365c7.114-3.445,13.485-8.246,19.12-14.41
			c5.635-6.158,10.363-13.552,14.176-22.162c3.813-8.611,6.507-18.08,8.066-28.41h-48.119c0,5.799-0.35,10.516-1.041,14.141
			c-0.699,3.625-1.604,6.431-2.735,8.422c-1.127,1.998-2.427,3.314-3.895,3.945c-1.48,0.637-2.997,0.861-4.559,0.683
			c-3.813-0.181-6.763-1.995-8.838-5.44c-2.082-3.439-3.563-7.429-4.427-11.963c-0.868-4.528-1.263-9.11-1.173-13.731
			c0.09-4.627,0.477-8.293,1.173-11.009h73.612c0-12.514-1.605-24.513-4.809-36.033c-3.213-11.509-7.682-21.701-13.396-30.584
			c-5.725-8.883-12.489-15.995-20.295-21.343c-7.801-5.348-16.295-8.021-25.491-8.021c-9.188,0-17.773,2.356-25.751,7.063
			c-7.977,4.72-14.951,11.15-20.94,19.309c-5.977,8.156-10.704,17.722-14.178,28.686c-3.463,10.967-5.193,22.703-5.193,35.211
			c0,12.504,1.73,24.294,5.193,35.348c3.474,11.055,8.201,20.708,14.178,28.954c5.989,8.249,12.965,14.732,20.94,19.44
			c7.978,4.714,16.563,7.069,25.751,7.069C1345.483,247.529,1353.029,245.806,1360.135,242.365 M1150.485,68.622l0.521,36.431
			c5.545,1.998,9.627,5.898,12.225,11.694v72.323c-0.516,5.076-4.247,8.974-11.184,11.694v44.043h73.612v-44.043
			c-3.296-0.365-6.157-1.359-8.58-2.994c-2.433-1.63-4.343-4.163-5.726-7.607v-76.948c0-1.454,0.303-2.904,0.912-4.353
			c0.604-1.453,1.334-2.629,2.21-3.54c0.861-0.9,1.732-1.4,2.604-1.489c0.86-0.093,1.562,0.499,2.078,1.771
			c1.563,7.064,3.941,12.598,7.153,16.581c3.203,3.986,6.677,6.711,10.402,8.159c3.729,1.454,7.542,1.765,11.445,0.951
			c3.902-0.816,7.456-2.584,10.669-5.303c3.203-2.72,5.724-6.209,7.542-10.466c1.814-4.265,2.642-9.112,2.471-14.55
			c0-7.791-1.175-14.316-3.509-19.578c-2.349-5.255-7.249-9.873-14.705-13.867c-5.894-1.448-12.396-1.132-19.506,0.957
			c-7.115,2.087-13.701,6.299-19.768,12.642V68.622H1150.485z M1094.561,3.365c-3.117,1.453-5.854,3.396-8.189,5.844
			c-2.345,2.446-4.208,5.348-5.599,8.703c-1.386,3.353-2.079,6.933-2.079,10.743c0,7.61,2.512,14.044,7.546,19.303
			c5.028,5.258,11.183,7.884,18.465,7.884c3.643,0,7.063-0.724,10.276-2.171c3.203-1.454,5.98-3.404,8.326-5.851
			c2.342-2.446,4.198-5.306,5.59-8.565c1.385-3.26,2.082-6.795,2.082-10.599c0-7.795-2.514-14.32-7.547-19.578
			c-5.029-5.259-11.274-7.891-18.729-7.891C1101.064,1.188,1097.686,1.917,1094.561,3.365 M1071.151,68.622v36.431
			c5.548,1.998,9.62,5.898,12.223,11.694v72.323c-0.347,2.543-1.426,4.717-3.248,6.526c-1.822,1.813-4.646,3.535-8.458,5.168v44.043
			h73.616v-44.043c-2.949-0.544-5.593-1.633-7.933-3.263c-2.345-1.633-4.471-4.256-6.373-7.887V68.622H1071.151z M940.832,0.105
			l-36.673,187.877c-1.044,2.181-2.04,3.903-2.997,5.168c-0.951,1.269-2.04,2.271-3.248,2.991c-1.217,0.73-2.602,1.316-4.163,1.766
			c-1.562,0.454-3.644,1.05-6.242,1.768v45.134h75.174v-45.134c-5.378,0-9.193-1.038-11.445-3.123
			c-2.259-2.084-2.859-4.396-1.821-6.936l3.643-16.043h26.271l4.163,16.043c0.174,1.268,0,2.493-0.523,3.67
			c-0.517,1.181-1.298,2.27-2.335,3.266c-1.044,0.996-2.216,1.762-3.517,2.312c-1.298,0.543-2.558,0.812-3.77,0.812v45.134h88.959
			v-45.134c-1.038-0.718-2.297-1.4-3.771-2.037c-1.475-0.637-2.862-1.406-4.16-2.309c-1.301-0.909-2.432-1.95-3.383-3.128
			c-0.957-1.179-1.431-2.584-1.431-4.218L1005.864,0.105H940.832z M977.508,140.128l-22.368,0.545l10.662-50.303L977.508,140.128z
			 M795.167,69.031c-4.337-1.361-8.5-2.185-12.479-2.453c-3.993-0.27-7.936-0.084-11.842,0.55
			c-3.899,0.631-8.277,1.762-13.133,3.395c-7.977,2.54-14.135,7.791-18.468,15.771c-4.333,7.979-6.502,16.587-6.502,25.829
			c-0.69,7.614,0,14.319,2.082,20.122c2.079,5.803,4.94,11.102,8.584,15.904c3.637,4.805,7.932,9.2,12.872,13.189
			c4.943,3.987,9.84,7.926,14.703,11.826c4.848,3.896,9.527,7.845,14.039,11.828c4.507,3.983,8.235,8.336,11.188,13.049
			c1.038,2.177,1.427,3.899,1.169,5.168c-0.26,1.268-0.78,2.312-1.561,3.123c-0.781,0.818-1.735,1.501-2.862,2.042
			c-1.131,0.547-2.037,1.002-2.729,1.36c-3.472,1.813-8.242,1.627-14.311-0.544c-3.119-1.627-5.59-3.266-7.408-4.898
			c-1.824-1.627-3.251-3.393-4.295-5.3c-1.038-1.902-1.95-3.983-2.729-6.25c-0.78-2.268-1.689-4.941-2.733-8.021h-26.009v60.636
			h18.729c1.389-3.442,3.47-5.893,6.242-7.34c2.946-1.092,5.681-0.957,8.192,0.4c2.512,1.36,4.982,2.584,7.415,3.673
			c4.16,1.995,8.628,3.164,13.396,3.535c4.769,0.358,9.496,0.132,14.178-0.679c4.681-0.816,9.192-2.134,13.526-3.945
			c4.333-1.807,8.233-4.076,11.709-6.795c3.637-2.72,6.586-6.023,8.841-9.924c2.252-3.895,3.99-8.065,5.198-12.508
			c1.214-4.44,1.908-9.067,2.081-13.872c0.174-4.8,0.09-9.556-0.257-14.271c-1.041-6.347-2.952-11.826-5.722-16.45
			c-2.775-4.624-6.074-8.787-9.889-12.507c-3.818-3.715-7.935-7.16-12.352-10.331c-4.424-3.17-8.76-6.388-13.01-9.651
			c-4.25-3.266-8.237-6.75-11.964-10.471c-3.729-3.708-6.727-7.926-8.976-12.642c-0.867-2.533-0.693-4.627,0.523-6.261
			c1.207-1.627,2.683-2.892,4.418-3.798c3.295-1.089,6.508-0.905,9.627,0.538c2.948,1.454,5.284,2.813,7.021,4.083
			c1.731,1.266,3.161,2.581,4.292,3.939c1.125,1.357,2.04,2.9,2.733,4.621c0.688,1.726,1.469,3.676,2.339,5.85h22.371V69.438
			h-18.988l-4.424,5.432C804.442,72.336,799.504,70.389,795.167,69.031 M669.667,104.102c1.818,2.814,3.379,6.622,4.684,11.425
			c1.299,4.804,2.298,10.466,2.988,16.988c0.691,6.532,1.038,13.506,1.038,20.937c0,7.256-0.347,14.141-1.038,20.669
			c-0.69,6.522-1.688,12.276-2.988,17.263c-1.304,4.989-2.864,8.934-4.684,11.829c-1.825,2.901-3.861,4.354-6.113,4.354
			c-2.082,0-4.034-1.412-5.853-4.223c-1.818-2.805-3.38-6.612-4.682-11.419c-1.301-4.797-2.345-10.42-3.125-16.854
			c-0.78-6.433-1.17-13.278-1.17-20.528c0-7.43,0.39-14.455,1.17-21.076c0.78-6.613,1.824-12.409,3.125-17.397
			c1.302-4.988,2.862-8.928,4.682-11.825c1.817-2.898,3.771-4.353,5.853-4.353C665.806,99.89,667.842,101.296,669.667,104.102
			 M637.28,73.511c-7.979,4.72-14.958,11.15-20.939,19.309c-5.981,8.156-10.708,17.722-14.176,28.686
			c-3.473,10.967-5.204,22.703-5.204,35.211c0,12.504,1.731,24.294,5.204,35.348c3.469,11.055,8.194,20.708,14.176,28.954
			c5.981,8.249,12.959,14.732,20.939,19.44c7.976,4.714,16.56,7.069,25.754,7.069c9.188,0,17.815-2.355,25.882-7.069
			c8.063-4.708,15.128-11.191,21.199-19.44c6.064-8.246,10.836-17.899,14.308-28.954c3.463-11.054,5.198-22.844,5.198-35.348
			c0-12.508-1.734-24.244-5.198-35.211c-3.472-10.964-8.243-20.529-14.308-28.686c-6.071-8.158-13.136-14.589-21.199-19.309
			c-8.066-4.708-16.694-7.063-25.882-7.063C653.839,66.448,645.256,68.804,637.28,73.511 M451.042,69.16v36.442
			c5.198,1.992,9.104,5.89,11.703,11.688v72.324c-1.041,5.071-4.773,8.973-11.187,11.69v42.96h67.11v-43.502
			c-2.081-0.909-3.902-1.992-5.461-3.263c-1.562-1.271-2.429-3.355-2.604-6.26l-0.518-75.04c1.731-3.439,3.595-6.161,5.596-8.156
			c1.989-1.995,4.978-2.81,8.973-2.443c3.123,0.362,5.548,1.537,7.279,3.529c1.731,2.001,3.557,4.713,5.468,8.159v73.951
			c-0.356,2.545-1.263,4.582-2.734,6.118c-1.475,1.543-3.948,3.039-7.414,4.492v43.505h67.111v-43.505
			c-2.949-0.365-5.422-1.13-7.415-2.309c-1.995-1.186-3.771-3.583-5.332-7.211v-71.238c0.35-4.349,0.263-9.011-0.258-14
			c-0.521-4.986-1.437-9.834-2.733-14.544c-1.301-4.713-3.039-8.927-5.201-12.645c-2.171-3.716-4.729-6.479-7.677-8.297
			c-4.681-2.719-9.583-4.391-14.694-5.03c-5.116-0.631-10.233-0.541-15.349,0.269c-5.111,0.823-10.1,2.185-14.954,4.085
			c-4.86,1.905-9.454,3.937-13.785,6.119l-0.525-7.893h-55.398V69.16z M372.745,140.128v-6.25c0-4.353,0.299-9.11,0.909-14.275
			c0.606-5.168,1.772-9.789,3.511-13.869c1.731-4.08,4.331-6.022,7.806-5.844c4.504,0,8.017,2.898,10.534,8.697
			c2.512,5.809,3.771,16.139,3.771,30.997L372.745,140.128z M407.08,242.365c7.109-3.445,13.479-8.246,19.12-14.41
			c5.632-6.158,10.359-13.552,14.177-22.162c3.811-8.611,6.502-18.08,8.063-28.41H400.32c0,5.799-0.356,10.516-1.043,14.141
			c-0.697,3.625-1.604,6.431-2.731,8.422c-1.13,1.998-2.435,3.314-3.906,3.945c-1.472,0.637-2.987,0.861-4.549,0.683
			c-3.813-0.181-6.762-1.995-8.844-5.44c-2.082-3.439-3.556-7.429-4.42-11.963c-0.873-4.528-1.262-9.11-1.172-13.731
			c0.083-4.627,0.476-8.293,1.172-11.009h73.613c0-12.514-1.606-24.513-4.815-36.033c-3.209-11.509-7.672-21.701-13.396-30.584
			c-5.718-8.883-12.483-15.995-20.286-21.343c-7.804-5.348-16.304-8.021-25.491-8.021c-9.197,0-17.777,2.356-25.751,7.063
			c-7.982,4.72-14.96,11.15-20.942,19.309c-5.986,8.156-10.713,17.722-14.176,28.686c-3.475,10.967-5.204,22.703-5.204,35.211
			c0,12.504,1.729,24.294,5.204,35.348c3.463,11.055,8.189,20.708,14.176,28.954c5.982,8.249,12.959,14.732,20.942,19.44
			c7.974,4.714,16.554,7.069,25.751,7.069C392.421,247.529,399.964,245.806,407.08,242.365 M315.782,245.358v-36.713
			c-5.38-2.171-9.28-6.067-11.706-11.69l0.521-128.874h-56.445l0.518,45.672c1.908,0.727,3.727,1.726,5.464,2.994
			c1.731,1.273,2.772,3.444,3.125,6.525v74.771c-1.914,3.631-3.906,6.388-5.988,8.291c-2.081,1.908-5.117,2.68-9.101,2.312
			c-3.126-0.357-5.554-1.491-7.286-3.395c-1.737-1.908-3.556-4.666-5.461-8.296L228.905,68.08h-55.928v44.587
			c2.77,0.368,5.159,1.085,7.154,2.177c1.992,1.089,3.682,3.535,5.069,7.34v71.241c0,4.166,0.263,8.742,0.781,13.728
			c0.521,4.989,1.388,9.838,2.602,14.541c1.212,4.721,2.817,8.979,4.813,12.783c1.989,3.812,4.462,6.525,7.414,8.159
			c4.684,2.722,9.628,4.438,14.826,5.165c5.201,0.721,10.36,0.679,15.477-0.135c5.114-0.816,10.104-2.178,14.957-4.08
			c4.854-1.901,9.451-3.941,13.788-6.119l1.038,7.891H315.782z M100.013,93.365c-1.478,3.445-3.383,5.709-5.722,6.795
			c-2.342,1.088-4.944,1.494-7.806,1.226c-2.859-0.275-5.59-0.41-8.192-0.41l1.041-48.396c2.426,0.183,4.985,0.09,7.671-0.272
			c2.689-0.358,5.159,0,7.415,1.088c2.252,1.086,4.115,3.356,5.593,6.795c1.471,3.445,2.213,9.068,2.213,16.862
			C102.226,84.485,101.484,89.922,100.013,93.365 M100.013,190.566c-1.478,3.9-3.383,6.526-5.722,7.888
			c-2.342,1.36-4.944,1.901-7.806,1.63c-2.859-0.27-5.59-0.41-8.192-0.41l1.041-55.195c2.426,0.186,4.985,0,7.671-0.542
			c2.689-0.547,5.159-0.225,7.415,0.951c2.252,1.181,4.115,3.766,5.593,7.752c1.471,3.984,2.213,10.423,2.213,19.3
			C102.226,180.463,101.484,186.666,100.013,190.566 M0,0.105v45.673c2.599,0.548,4.812,1.092,6.63,1.637
			c1.822,0.544,3.335,1.315,4.556,2.312c1.205,0.996,2.249,2.223,3.116,3.669c0.867,1.454,1.824,3.261,2.862,5.438V190.7
			c-1.911,3.086-4.418,5.348-7.543,6.801c-3.119,1.454-6.155,2.354-9.104,2.719L0,244.807h80.375c8.323,0,16.604-0.222,24.841-0.676
			c8.231-0.455,16.521-1.675,24.839-3.673c7.456-3.081,14.263-7.926,20.418-14.547c6.155-6.61,10.71-14.272,13.659-22.977
			c1.388-5.613,2.297-11.464,2.734-17.532c0.428-6.077,0.212-12.279-0.655-18.627c-1.035-10.153-4.289-19.351-9.75-27.599
			s-12.095-14.637-19.901-19.171c2.602-2.171,4.594-3.983,5.982-5.431c1.388-1.454,2.602-2.765,3.643-3.948
			c1.041-1.179,2.12-2.536,3.251-4.074c1.127-1.54,2.817-3.583,5.072-6.119c2.946-5.075,5.072-10.604,6.374-16.587
			c1.298-5.985,1.777-12.101,1.433-18.357c-0.35-6.25-1.474-12.37-3.382-18.353c-1.911-5.98-4.6-11.592-8.066-16.855
			c-4.337-6.526-9.191-11.781-14.568-15.769c-5.371-3.99-11.18-7.07-17.424-9.242c-6.242-2.183-12.795-3.625-19.638-4.354
			C92.38,0.195,85.403-0.075,78.293,0.105H0z"/>
	</g>
</g>
</svg>
