<svg xmlns="http://www.w3.org/2000/svg" xmlns:xlink="http://www.w3.org/1999/xlink" viewBox="0 0 259.18 53.96"><defs><style>.cls-1{fill:#bc161f;}.cls-2{fill:#d84325;}.cls-3{fill:#922624;}.cls-4{fill:url(#Degradado_sin_nombre_99);}.cls-5{fill:url(#Degradado_sin_nombre_99-2);}.cls-6{fill:url(#Degradado_sin_nombre_99-3);}.cls-7{fill:url(#Degradado_sin_nombre_99-4);}.cls-8{fill:url(#Degradado_sin_nombre_99-5);}.cls-9{fill:url(#Degradado_sin_nombre_99-6);}.cls-10{opacity:0.33;}.cls-11{fill:#fff;}</style><linearGradient id="Degradado_sin_nombre_99" x1="71.97" y1="52.89" x2="71.97" y2="16.23" gradientUnits="userSpaceOnUse"><stop offset="0" stop-color="#922624"/><stop offset="0.21" stop-color="#a51f22"/><stop offset="0.47" stop-color="#b61820"/><stop offset="0.67" stop-color="#bc161f"/><stop offset="0.85" stop-color="#ca2c22"/><stop offset="1" stop-color="#d84325"/></linearGradient><linearGradient id="Degradado_sin_nombre_99-2" x1="102.78" y1="52.21" x2="102.78" y2="16.23" xlink:href="#Degradado_sin_nombre_99"/><linearGradient id="Degradado_sin_nombre_99-3" x1="128.9" y1="52.86" x2="128.9" y2="8.26" xlink:href="#Degradado_sin_nombre_99"/><linearGradient id="Degradado_sin_nombre_99-4" x1="161.81" y1="52.89" x2="161.81" y2="16.88" xlink:href="#Degradado_sin_nombre_99"/><linearGradient id="Degradado_sin_nombre_99-5" x1="204.2" y1="52.21" x2="204.2" y2="16.23" xlink:href="#Degradado_sin_nombre_99"/><linearGradient id="Degradado_sin_nombre_99-6" x1="242.44" y1="52.89" x2="242.44" y2="16.23" xlink:href="#Degradado_sin_nombre_99"/></defs><g id="Capa_3" data-name="Capa 3"><path class="cls-1" d="M52.05,0V42c0,6-4,12-11.57,12H0V12.62C0,6.36,2.91.24,12.78.24S52.05,0,52.05,0Z"/></g><g id="Capa_4" data-name="Capa 4"><path class="cls-2" d="M0,53.86V13.49S-.88,0,10.42,0H52C22.76.77,16.4,3.57,9.3,12.2S0,48.3,0,53.86Z"/><path class="cls-3" d="M.11,54h39.8c6.71,0,12.14-4,12.14-12.82V.1C45.59,22.64,27.48,46.25.11,54Z"/></g><g id="Capa_2" data-name="Capa 2"><path class="cls-4" d="M72,52.89a16.57,16.57,0,0,1-8.88-2.28,15.09,15.09,0,0,1-5.68-6.35,21,21,0,0,1-2-9.36v-.68a20.8,20.8,0,0,1,2-9.31,15.24,15.24,0,0,1,5.68-6.36A16.17,16.17,0,0,1,72,16.23a16.34,16.34,0,0,1,8.85,2.3,15.13,15.13,0,0,1,5.67,6.35,21.14,21.14,0,0,1,2,9.34v.68a21.26,21.26,0,0,1-2,9.36,15.07,15.07,0,0,1-5.67,6.35A16.38,16.38,0,0,1,72,52.89Zm0-6.82a6.45,6.45,0,0,0,4.26-1.4,8.36,8.36,0,0,0,2.5-3.94,19.14,19.14,0,0,0,.81-5.83v-.68a18.81,18.81,0,0,0-.81-5.78,8.41,8.41,0,0,0-2.52-3.94A6.52,6.52,0,0,0,72,23.08a6.45,6.45,0,0,0-4.29,1.42,8.39,8.39,0,0,0-2.5,3.94,18.8,18.8,0,0,0-.82,5.78v.68a19.13,19.13,0,0,0,.82,5.85,8.2,8.2,0,0,0,2.52,3.92A6.59,6.59,0,0,0,72,46.07Z"/><path class="cls-5" d="M90.4,52.21V46.85l4.74-1V23.25l-5.1-1V16.88h13.33l.39,4.41.06.75a11.31,11.31,0,0,1,3.33-4.33,7.66,7.66,0,0,1,4.7-1.48,14.69,14.69,0,0,1,1.91.14,11.38,11.38,0,0,1,1.75.38l-1,8.19-4.67-.26a5.81,5.81,0,0,0-3.48.79A7.46,7.46,0,0,0,104,28V45.87l4.73,1v5.36Z"/><path class="cls-6" d="M133,52.86a9.8,9.8,0,0,1-7.3-2.63q-2.59-2.62-2.59-8.34V23.18h-5v-6.3h5V8.26h8.84v8.62h6.76v6.3h-6.76V41.89a4.35,4.35,0,0,0,.92,3.1,3.25,3.25,0,0,0,2.45.95,14.21,14.21,0,0,0,1.86-.13c.67-.09,1.24-.18,1.7-.26l.84,6.3a29.67,29.67,0,0,1-3.24.72A22.08,22.08,0,0,1,133,52.86Z"/><path class="cls-7" d="M158.48,52.89q-5.65,0-8.83-3.57T146.46,38.2v-15l-3.91-1V16.88h12.79V38.27c0,2.78.47,4.76,1.39,5.92A5.11,5.11,0,0,0,161,45.94a8.68,8.68,0,0,0,4.15-.95A7.38,7.38,0,0,0,168,42.28v-19l-4.31-1V16.88h13.19v29l4.21,1v5.36H169l-.58-4.64a11.4,11.4,0,0,1-4.2,4A11.85,11.85,0,0,1,158.48,52.89Z"/><path class="cls-8" d="M184.47,52.21V46.85l4.73-1V23.25l-5.09-1V16.88h13.32l.42,5.09a12.93,12.93,0,0,1,4.4-4.22,11.58,11.58,0,0,1,5.95-1.52,10.69,10.69,0,0,1,8.35,3.34c2,2.24,3,5.73,3,10.5v15.8l4.73,1v5.36h-18V46.85l4.34-1V30.14q0-3.8-1.5-5.37a5.86,5.86,0,0,0-4.47-1.59,7.56,7.56,0,0,0-3.87,1,7.92,7.92,0,0,0-2.73,2.73v19l4.18,1v5.36Z"/><path class="cls-9" d="M237.14,52.89q-5.32,0-8.38-2.79a9.86,9.86,0,0,1-3-7.65,9.81,9.81,0,0,1,1.81-5.87,11.79,11.79,0,0,1,5.36-3.95,23.37,23.37,0,0,1,8.63-1.42h5V28.44A5.94,5.94,0,0,0,245,24.13a6.2,6.2,0,0,0-4.66-1.63,10.14,10.14,0,0,0-3,.4A8.44,8.44,0,0,0,235,24.06l-.75,4.74h-6.47l-.06-8.95a26.25,26.25,0,0,1,5.89-2.63,24.32,24.32,0,0,1,7.17-1q6.83,0,10.76,3.18t3.93,9.13V43.59c0,.48,0,.94,0,1.4a11.53,11.53,0,0,0,.11,1.34l3.63.52v5.36H247.91c-.24-.68-.46-1.37-.67-2.08A14.39,14.39,0,0,1,246.8,48a14,14,0,0,1-4.13,3.54A11.08,11.08,0,0,1,237.14,52.89Zm2.18-6.69a8.84,8.84,0,0,0,4.23-1.05,7.54,7.54,0,0,0,3-2.64V36.76h-5.06a7.47,7.47,0,0,0-5.18,1.59,4.89,4.89,0,0,0-1.74,3.74,3.79,3.79,0,0,0,1.24,3A5.2,5.2,0,0,0,239.32,46.2Z"/><g class="cls-10"><polygon points="12.63 49.64 12.63 44.79 17.27 43.9 17.27 12.32 12.63 11.43 12.63 6.54 43.66 6.54 43.66 18.03 37.44 18.03 37 12.76 25.32 12.76 25.32 25.28 37.68 25.28 37.68 31.5 25.32 31.5 25.32 43.9 29.97 44.79 29.97 49.64 12.63 49.64"/></g><polygon class="cls-11" points="11.59 48.67 11.59 43.81 16.24 42.93 16.24 11.34 11.59 10.45 11.59 5.57 42.63 5.57 42.63 17.06 36.41 17.06 35.96 11.79 24.29 11.79 24.29 24.31 36.65 24.31 36.65 30.52 24.29 30.52 24.29 42.93 28.94 43.81 28.94 48.67 11.59 48.67"/></g></svg>