<?xml version="1.0" encoding="utf-8"?>
<!-- Generator: Adobe Illustrator 16.0.0, SVG Export Plug-In . SVG Version: 6.00 Build 0)  -->
<!DOCTYPE svg PUBLIC "-//W3C//DTD SVG 1.1//EN" "http://www.w3.org/Graphics/SVG/1.1/DTD/svg11.dtd">
<svg version="1.1" id="Layer_1" xmlns="http://www.w3.org/2000/svg" xmlns:xlink="http://www.w3.org/1999/xlink" x="0px" y="0px"
	 width="593.088px" height="128.368px" viewBox="0 0 593.088 128.368" enable-background="new 0 0 593.088 128.368"
	 xml:space="preserve">
<rect fill="none" width="593.088" height="128.368"/>
<rect x="10.02" y="10.284" fill="none" stroke="#FFFFFF" width="573.049" height="107.801"/>
<g>
	<defs>
		<rect id="SVGID_1_" x="23.127" y="22.646" width="546.834" height="83.078"/>
	</defs>
	<clipPath id="SVGID_2_">
		<use xlink:href="#SVGID_1_"  overflow="visible"/>
	</clipPath>
	<path clip-path="url(#SVGID_2_)" fill="#FFFFFF" d="M515.301,84.952c0.684,15.635,14.035,20.771,27.73,20.771
		c13.465,0,26.93-5.021,26.93-20.543c0-10.955-9.242-14.378-18.715-16.546c-9.244-2.168-18.373-2.966-18.373-8.787
		c0-4.793,5.363-5.478,9.016-5.478c5.82,0,10.611,1.712,11.068,7.989h15.406c-1.256-14.493-13.123-18.829-26.018-18.829
		c-12.666,0-25.678,3.879-25.678,18.943c0,10.385,9.359,13.694,18.717,15.747c11.639,2.512,18.373,4.223,18.373,9.129
		c0,5.709-5.936,7.533-10.615,7.533c-6.389,0-12.322-2.854-12.438-9.93H515.301z M471.024,63.271
		c0.572-6.39,4.564-8.901,10.729-8.901c5.705,0,10.498,1.027,10.498,7.989c0,6.619-9.244,6.276-19.172,7.76
		c-10.041,1.369-20.084,4.564-20.084,17.915c0,12.097,8.9,17.69,20.084,17.69c7.189,0,14.721-1.941,19.857-7.305
		c0.113,1.941,0.57,3.881,1.141,5.705h16.432c-1.482-2.396-2.055-7.758-2.055-13.123V60.304c0-14.15-14.148-16.774-25.904-16.774
		c-13.236,0-26.816,4.564-27.729,19.741H471.024z M492.25,81.301c0,3.538-0.455,13.581-13.123,13.581c-5.25,0-9.93-1.484-9.93-7.533
		c0-5.934,4.564-7.645,9.588-8.672c5.02-0.914,10.725-1.027,13.465-3.424V81.301z M393.655,84.952
		c0.686,15.635,14.037,20.771,27.73,20.771c13.465,0,26.932-5.021,26.932-20.543c0-10.955-9.242-14.378-18.717-16.546
		c-9.242-2.168-18.371-2.966-18.371-8.787c0-4.793,5.363-5.478,9.014-5.478c5.82,0,10.615,1.712,11.07,7.989h15.406
		c-1.256-14.493-13.123-18.829-26.02-18.829c-12.666,0-25.674,3.879-25.674,18.943c0,10.385,9.357,13.694,18.715,15.747
		c11.639,2.512,18.371,4.223,18.371,9.129c0,5.709-5.934,7.533-10.611,7.533c-6.391,0-12.324-2.854-12.439-9.93H393.655z
		 M384.297,22.646h-16.203v13.352h16.203V22.646z M368.094,104.124h16.203V45.127h-16.203V104.124z M323.247,104.124h16.205v-26.59
		c0-10.384,4.108-18.941,15.977-18.941c1.939,0,4.336,0.228,5.818,0.571V44.1c-1.025-0.343-2.396-0.57-3.537-0.57
		c-7.873,0-15.86,5.135-18.83,12.552h-0.227V45.127h-15.406V104.124z M300.767,74.683c0,9.814-4.222,18.83-13.808,18.83
		c-9.585,0-13.809-9.016-13.809-18.83c0-9.928,4.223-18.943,13.809-18.943C296.545,55.739,300.767,64.755,300.767,74.683
		 M257.517,104.124h15.406v-7.531h0.228c3.539,6.506,10.728,9.131,19.4,9.131c11.754,0,24.42-9.473,24.42-31.155
		c0-21.567-12.666-31.039-24.42-31.039c-7.304,0-14.606,2.738-18.601,8.787h-0.228v-29.67h-16.205V104.124z M210.389,63.271
		c0.57-6.39,4.564-8.901,10.727-8.901c5.706,0,10.499,1.027,10.499,7.989c0,6.619-9.243,6.276-19.171,7.76
		c-10.042,1.369-20.084,4.564-20.084,17.915c0,12.097,8.901,17.69,20.084,17.69c7.189,0,14.721-1.941,19.856-7.305
		c0.114,1.941,0.57,3.881,1.141,5.705h16.433c-1.484-2.396-2.055-7.758-2.055-13.123V60.304c0-14.15-14.15-16.774-25.904-16.774
		c-13.238,0-26.818,4.564-27.73,19.741H210.389z M231.614,81.301c0,3.538-0.456,13.581-13.123,13.581
		c-5.25,0-9.928-1.484-9.928-7.533c0-5.934,4.564-7.645,9.586-8.672c5.021-0.914,10.727-1.027,13.465-3.424V81.301z
		 M153.902,104.124h16.205v-26.59c0-10.384,4.108-18.941,15.976-18.941c1.94,0,4.337,0.228,5.82,0.571V44.1
		c-1.027-0.343-2.396-0.57-3.538-0.57c-7.874,0-15.862,5.135-18.829,12.552h-0.229V45.127h-15.406V104.124z M106.203,63.271
		c0.57-6.39,4.564-8.901,10.727-8.901c5.706,0,10.499,1.027,10.499,7.989c0,6.619-9.244,6.276-19.171,7.76
		c-10.042,1.369-20.084,4.564-20.084,17.915c0,12.097,8.901,17.69,20.084,17.69c7.189,0,14.72-1.941,19.856-7.305
		c0.114,1.941,0.571,3.881,1.141,5.705h16.434c-1.484-2.396-2.055-7.758-2.055-13.123V60.304c0-14.15-14.15-16.774-25.904-16.774
		c-13.237,0-26.817,4.564-27.73,19.741H106.203z M127.428,81.301c0,3.538-0.457,13.581-13.124,13.581
		c-5.249,0-9.928-1.484-9.928-7.533c0-5.934,4.564-7.645,9.586-8.672c5.021-0.914,10.727-1.027,13.466-3.424V81.301z M41.043,36.568
		h13.922c8.331,0,15.748,1.826,15.748,12.21c0,10.385-7.417,12.21-15.748,12.21H41.043V36.568z M23.127,104.124h17.917V74.911
		h18.829c20.313,0,28.187-12.896,28.187-26.133s-7.874-26.132-28.187-26.132H23.127V104.124z"/>
</g>
</svg>
