<?xml version="1.0" encoding="utf-8"?>
<!-- Generator: Adobe Illustrator 15.0.0, SVG Export Plug-In . SVG Version: 6.00 Build 0)  -->
<!DOCTYPE svg PUBLIC "-//W3C//DTD SVG 1.1//EN" "http://www.w3.org/Graphics/SVG/1.1/DTD/svg11.dtd">
<svg version="1.1" id="Layer_1" xmlns="http://www.w3.org/2000/svg" xmlns:xlink="http://www.w3.org/1999/xlink" x="0px" y="0px"
	 width="293.636px" height="65.76px" viewBox="0 0 293.636 65.76" enable-background="new 0 0 293.636 65.76" xml:space="preserve">
<circle fill="#547D9B" cx="32.88" cy="32.88" r="32.88"/>
<g>
	<g>
		<path fill="#FFFFFF" d="M292.921,52.702l0.715-13.65l-2.75-0.25c-2.145,8.2-6.16,11.15-15.015,11.15
			c-3.245,0-4.181-0.15-4.181-2.65v-25.45c0-2,0.44-2.649,2.806-2.649h3.465v-2.601h-21.78v2.601h2.86c2.42,0,2.75,0.649,2.75,2.649
			v25.601c0,2-0.44,2.6-2.806,2.6h-2.805v2.65H292.921z M254.633,16.602h-21.615v2.601h3.025c2.42,0,2.805,0.649,2.805,2.649v25.601
			c0,2-0.44,2.6-2.805,2.6h-3.025v2.65h21.615v-2.65h-3.135c-2.365,0-2.75-0.6-2.75-2.6V21.852c0-2,0.385-2.649,2.75-2.649h3.135
			V16.602z M229.93,16.602h-35.915v2.601h2.805c2.42,0,2.805,0.649,2.805,2.649v25.601c0,2-0.439,2.6-2.805,2.6h-2.805v2.65h22.055
			v-2.65h-3.959c-2.365,0-2.75-0.6-2.75-2.6v-12.05c0.274,0,0.494,0,0.77,0c4.84,0,6.875,1.899,7.811,6.899h2.75v-16.55h-2.75
			c-0.936,5-2.916,6.95-7.811,6.95c-0.275,0-0.495,0-0.77,0v-10.7c0-2.5,0.824-2.7,4.014-2.7c8.416,0,12.211,2.65,14.301,10.3h2.695
			L229.93,16.602z M165.516,35.352c0.771-0.05,1.54-0.05,2.2-0.05c6.325,0,7.48,1.65,7.865,7.15c0.165,2.75-0.275,5.35,1.155,7.75
			c1.319,2.25,4.015,3.399,7.975,3.399c5.774,0,9.185-3.199,9.185-8.8c0-0.149,0-0.25,0-0.399h-2.805
			c-0.055,3.25-0.715,4.899-2.311,4.899c-2.475,0-1.924-3.7-3.52-8.1c-1.43-4-4.455-6.15-8.47-6.25v-0.351
			c7.81-0.25,12.265-3.6,12.265-8.85c0-5.95-5.004-9.15-14.795-9.15h-24.255v2.601h2.97c2.146,0,2.806,0.55,2.806,2.649v25.601
			c0,2.1-0.66,2.6-2.806,2.6h-2.97v2.65h21.23v-2.65h-2.971c-2.09,0-2.75-0.45-2.75-2.6V35.352z M165.516,21.952
			c0-2.45,0.605-2.75,4.235-2.75c6.545,0,9.24,1.5,9.24,6.7c0,5.35-3.3,6.899-11.165,6.899c-0.771,0-1.485,0-2.311-0.1V21.952z
			 M109.408,52.702h37.07l0.716-13.55l-2.751-0.2c-2.145,8.3-6.325,11.2-15.564,11.2c-3.355,0-4.181-0.25-4.181-2.7v-12.05
			c0.275,0,0.495,0,0.771,0c4.84,0,6.875,1.899,7.81,6.899h2.75v-16.55h-2.75c-0.935,5-2.915,6.95-7.81,6.95
			c-0.275,0-0.495,0-0.771,0V21.852c0-2.5,0.825-2.7,4.016-2.7c8.47,0,12.32,2.7,14.3,10.45h2.695l-0.44-13h-35.86v2.601h2.75
			c2.421,0,2.806,0.649,2.806,2.649v25.601c0,2-0.44,2.6-2.806,2.6h-2.75V52.702z M83.879,47.452v-10.25
			c1.98,0.05,3.795,0.05,5.5,0.05c12.266,0,18.261-3.25,18.261-10.4c0-6.699-5.17-10.25-15.125-10.25H68.26v2.601h2.97
			c2.42,0,2.805,0.649,2.805,2.649v25.601c0,2-0.44,2.6-2.805,2.6h-2.97v2.65h21.78v-2.65h-3.465
			C84.32,50.052,83.879,49.552,83.879,47.452z M83.879,22.352c0-2.8,0.66-3.149,4.291-3.149c6.435,0,8.965,1.85,8.965,7.649
			c0,6.051-3.025,7.65-10.506,7.65c-1.209,0-2.09-0.05-2.75-0.15V22.352z"/>
	</g>
</g>
<path fill="#FFFFFF" d="M29.145,33.581c-0.056-0.008-0.122-0.123-0.122-0.123c-0.16-0.306-0.087-1.359,0.283-3.009
	c0.44-1.967,2.128-3.593,3.677-4.295c1.114-0.504,3.551-1.412,5.368-1.901c2.206-0.594,6.952-1.712,6.952-1.712
	s2.426-0.562,4.333-0.891c1.783-0.307,3.559-0.488,4.271-0.71c1.215-0.378,2.47-0.734,3.469-1.583
	c-0.787,0.645,0.214-0.138,0.05-0.06c0.112-0.108,0.157-0.108,0.217-0.19c0,0,1.002-1.019,0.82-1.826s-1.589-0.671-1.589-0.671
	s-2.903,0.018-3.791,0.125c-0.889,0.108-1.014,0.394-1.612,0.95c-0.599,0.556-1.066,0.901-2.027,0.937
	C48.48,18.658,43.905,17.973,42,17.99c-1.904,0.018-5.422-0.018-10.192,1.058c-1.225,0.276-3.089,0.782-5.568,1.883
	c0,0-2.038,0.754-3.54,2.554c0,0-0.81,1.001-0.873,3.615c-0.019,0.779,0.46,2.191-0.035,2.69c-0.693,0.697-2.581,0.513-3.214,0.419
	c-1.411-0.209-2.626-0.817-2.899-0.996c-0.501-0.328-1.451-1.062-1.572-1.992c-0.3-2.291-0.9-3.25-2.498-3.406
	c0,0-0.978-0.062-3.313,0.621c0,0-1.278,0.357-2.249,0.466c-0.972,0.108-2.151,0.063-2.151,0.326c0,0.264,0.706,0.342,2.664,0.28
	c1.958-0.062,3.243,0.138,4.151,0.757c0,0,0.971,0.464,1.488,2.246s0.33,2.246,1.16,2.695c0,0,2.037,1.053,4.183,1.782
	c2.146,0.728,2.177,2.476,2.224,2.863c0.047,0.387,0.144,3.022,0.175,3.843s0.547,3.005,2.114,4.987c0,0,1.03,1.786,4.821,3.799
	c3.646,1.771,3.68,1.61,4.49,1.974c0.801,0.36,1.921,0.856,2.235,1.258c0.227,0.29,0.786,0.965,1.223,1.012
	c0.438,0.049,13.501,0.099,13.501,0.099s0.874,0.035,0.429-0.958c-0.277-0.62-0.862-1.359-1.719-1.761
	c-0.821-0.384-1.412-0.764-3.354-1.1c-1.942-0.336-4.101-0.811-6.48-1.747c-2.38-0.937-5.266-3.064-6.359-4
	c-1.092-0.937-2.783-2.266-3.196-4.21c0,0-0.187-0.876,0.433-1.97c0,0,0.285-0.358,0.867-0.415c0,0,1.089,0.068,2.014,0.122
	c0.925,0.054,3.02,0.326,4.235,0.452c1.215,0.125,5.591,0.796,7.06,1.101s6.849,1.818,7.574,2.016
	c0.726,0.197,4.441,1.67,4.841,1.187c0,0,0.055-0.064,0.241-0.522c0.268-0.665,1.654-8.589,1.654-8.589s0.175-1.037-1.162-1.085
	c-0.835-0.03-1.335-0.247-2.551-0.175c-1.215,0.072-3.043,0.274-6.017,0.794s-6.129,1.282-6.129,1.282s-1.257,0.381-4.09,0.815
	c-2.423,0.372-6.393,0.053-7.101-0.202C29.512,33.86,29.286,33.738,29.145,33.581"/>
</svg>
