<?xml version="1.0" standalone="no"?>
<!DOCTYPE svg PUBLIC "-//W3C//DTD SVG 20010904//EN"
 "http://www.w3.org/TR/2001/REC-SVG-20010904/DTD/svg10.dtd">
<svg version="1.0" xmlns="http://www.w3.org/2000/svg"
 width="16.000000pt" height="16.000000pt" viewBox="0 0 16.000000 16.000000"
 preserveAspectRatio="xMidYMid meet">
<metadata>
Created by potrace 1.11, written by Peter Selinger 2001-2013
</metadata>
<g transform="translate(0.000000,16.000000) scale(0.001563,-0.001563)"
fill="#000000" stroke="none">
<path d="M4910 9954 c-269 -18 -567 -57 -767 -99 -1138 -244 -2144 -884 -2837
-1805 -187 -249 -333 -485 -471 -765 -1167 -2366 -205 -5223 2156 -6406 484
-242 1003 -399 1546 -468 801 -102 1627 5 2382 308 678 272 1310 716 1783
1252 415 470 710 961 926 1539 293 788 370 1683 216 2520 -175 952 -633 1828
-1314 2511 -798 800 -1805 1278 -2940 1394 -148 15 -564 27 -680 19z m3822
-2271 c72 -13 90 -20 103 -40 15 -22 15 -28 1 -71 -51 -151 -200 -308 -397
-416 -115 -63 -230 -93 -566 -151 -554 -94 -667 -117 -1238 -251 -712 -166
-893 -218 -1250 -359 -223 -88 -317 -138 -446 -234 -142 -107 -205 -185 -298
-369 -83 -165 -132 -527 -77 -568 11 -7 53 -21 95 -30 65 -15 138 -18 511 -18
406 -1 445 1 585 22 206 32 418 77 796 172 651 162 990 215 1449 227 314 8
487 -11 515 -57 19 -31 0 -186 -70 -575 -51 -282 -149 -801 -164 -864 -20 -91
-7 -93 -526 64 -691 208 -1384 375 -2000 480 -318 54 -365 59 -835 90 -129 8
-277 22 -328 31 l-92 16 -39 -25 c-50 -33 -77 -91 -91 -196 -16 -115 -1 -203
50 -306 49 -99 119 -181 286 -331 252 -227 357 -304 659 -487 215 -130 378
-210 540 -267 151 -52 521 -146 806 -205 243 -50 324 -76 431 -137 193 -111
318 -321 246 -413 l-22 -28 -1019 7 c-965 7 -1021 8 -1056 25 -20 11 -46 33
-59 51 -13 17 -50 51 -82 74 -76 56 -412 226 -610 309 -229 95 -252 107 -400
192 -335 192 -532 362 -684 590 -65 96 -191 351 -220 444 -33 104 -45 213 -56
501 -10 263 -21 360 -51 448 -54 158 -117 209 -393 314 -323 123 -486 199
-536 250 -46 46 -63 88 -110 283 -23 94 -53 194 -68 222 -54 111 -209 223
-353 257 -88 20 -369 37 -625 38 -210 0 -246 5 -226 33 26 36 91 55 316 90 87
14 186 32 221 40 394 91 447 100 590 100 134 0 143 -1 203 -29 73 -34 124 -87
147 -155 8 -25 25 -97 36 -160 33 -188 69 -264 173 -364 100 -96 360 -201 561
-226 134 -16 370 27 401 74 31 48 37 132 19 270 -28 211 -6 374 74 540 90 187
215 303 441 408 127 59 521 208 700 265 459 147 1049 231 1611 232 236 0 382
-12 802 -65 152 -19 307 -35 343 -35 125 0 251 62 345 171 28 32 65 63 82 69
32 11 356 46 492 54 108 5 261 -3 357 -21z"/>
</g>
</svg>
