<?xml version="1.0" encoding="utf-8"?>
<!-- Generator: Adobe Illustrator 15.1.0, SVG Export Plug-In . SVG Version: 6.00 Build 0)  -->
<!DOCTYPE svg PUBLIC "-//W3C//DTD SVG 1.1//EN" "http://www.w3.org/Graphics/SVG/1.1/DTD/svg11.dtd">
<svg version="1.1" id="Layer_1" xmlns="http://www.w3.org/2000/svg" xmlns:xlink="http://www.w3.org/1999/xlink" x="0px" y="0px"
	 width="108.842px" height="108.842px" viewBox="9.579 9.579 108.842 108.842" enable-background="new 9.579 9.579 108.842 108.842"
	 xml:space="preserve">
<g>
	<path fill="#555555" d="M24.027,89.479c-3.992,0-7.577,1.612-10.209,4.234V93.71c-2.625,2.627-4.239,6.207-4.239,10.187
		c0,3.975,1.614,7.541,4.239,10.164c2.632,2.623,6.217,4.228,10.209,4.228c3.997,0,7.593-1.601,10.221-4.22l0.011-0.008
		c2.627-2.621,4.232-6.191,4.241-10.164c-0.009-3.979-1.614-7.549-4.252-10.182C31.613,91.095,28.024,89.479,24.027,89.479z"/>
	<path fill="#555555" d="M13.818,114.066c0,0,0,0,0-0.006c-0.003,0-0.003,0-0.003,0L13.818,114.066z"/>
	<path fill="#555555" d="M34.248,93.71v0.003c0.007,0,0.007,0,0.007,0L34.248,93.71z"/>
	<path fill="#555555" d="M86.503,41.512C66.789,21.796,39.619,9.591,9.627,9.579v20.776c48.5,0.032,87.926,39.519,87.961,88.066
		h20.833C118.406,88.416,106.212,61.232,86.503,41.512z"/>
	<path fill="#555555" d="M9.59,46.588v20.785c13.567,0.008,26.402,5.337,36.004,14.955c9.602,9.586,14.91,22.438,14.931,36.056
		h0.008v0.037H81.4c-0.018-19.797-8.065-37.729-21.074-50.749C47.313,54.655,29.388,46.602,9.59,46.588z"/>
</g>
</svg>
