<?xml version="1.0" encoding="utf-8"?>
<!-- Generator: Adobe Illustrator 15.1.0, SVG Export Plug-In . SVG Version: 6.00 Build 0)  -->
<!DOCTYPE svg PUBLIC "-//W3C//DTD SVG 1.1//EN" "http://www.w3.org/Graphics/SVG/1.1/DTD/svg11.dtd">
<svg version="1.1" id="Layer_4" xmlns="http://www.w3.org/2000/svg" xmlns:xlink="http://www.w3.org/1999/xlink" x="0px" y="0px"
	 width="48px" height="48px" viewBox="0 0 48 48" enable-background="new 0 0 48 48" xml:space="preserve">
<g>
	<polygon fill="#FFFFFF" points="20.539,16.826 9.877,6.164 16.02,0 0,0 0,16.074 6.222,9.831 16.877,20.486 	"/>
	<polygon fill="#FFFFFF" points="27.462,16.826 38.123,6.164 31.98,0 48,0 48,16.074 41.777,9.831 31.123,20.486 	"/>
	<polygon fill="#FFFFFF" points="27.462,31.176 38.123,41.838 31.98,48.002 48,48.002 48,31.927 41.777,38.17 31.123,27.516 	"/>
	<polygon fill="#FFFFFF" points="20.539,31.176 9.878,41.838 16.02,48.002 0.001,48.002 0.001,31.927 6.223,38.17 16.877,27.516 	
		"/>
</g>
</svg>
