<?xml version="1.0" encoding="utf-8"?>
<!-- Generator: Adobe Illustrator 15.1.0, SVG Export Plug-In . SVG Version: 6.00 Build 0)  -->
<!DOCTYPE svg PUBLIC "-//W3C//DTD SVG 1.1//EN" "http://www.w3.org/Graphics/SVG/1.1/DTD/svg11.dtd">
<svg version="1.1" id="Layer_1" xmlns="http://www.w3.org/2000/svg" xmlns:xlink="http://www.w3.org/1999/xlink" x="0px" y="0px"
	 width="548.008px" height="422.796px" viewBox="31.996 196.608 548.008 422.796"
	 enable-background="new 31.996 196.608 548.008 422.796" xml:space="preserve">
<g id="Layer_1_1_">
</g>
<g id="Layer_2">
	<g>
		<path fill="#FFFFFF" d="M537.929,242.187H417.439l-24.109-32.132c-3.503-8.152-11.523-13.447-20.404-13.447H233.074
			c-8.881,0-16.902,5.283-20.404,13.447l-24.11,32.132H74.071c-23.237,0-42.075,18.838-42.075,42.075v293.067
			c0,23.236,18.838,42.075,42.075,42.075h463.857c23.237,0,42.075-18.839,42.075-42.075V284.262
			C580.004,261.013,561.166,242.187,537.929,242.187z M306,560.033c-71.383,0-129.249-57.867-129.249-129.25
			c0-71.382,57.866-129.249,129.249-129.249s129.249,57.867,129.249,129.249C435.249,502.166,377.383,560.033,306,560.033z
			 M508.273,332.72h-1.421c-10.566,0-19.125-8.559-19.125-19.125s8.559-19.125,19.125-19.125h1.421
			c10.566,0,19.125,8.559,19.125,19.125S518.84,332.72,508.273,332.72z"/>
	</g>
</g>
<circle fill="#FFFFFF" cx="306" cy="430.784" r="103.4"/>
</svg>
