<?xml version="1.0" encoding="utf-8"?>
<!-- Generator: Adobe Illustrator 15.1.0, SVG Export Plug-In . SVG Version: 6.00 Build 0)  -->
<!DOCTYPE svg PUBLIC "-//W3C//DTD SVG 1.1//EN" "http://www.w3.org/Graphics/SVG/1.1/DTD/svg11.dtd">
<svg version="1.1" id="Layer_1" xmlns="http://www.w3.org/2000/svg" xmlns:xlink="http://www.w3.org/1999/xlink" x="0px" y="0px"
	 width="59.757px" height="59.757px" viewBox="-0.072 -0.17 59.757 59.757" enable-background="new -0.072 -0.17 59.757 59.757"
	 xml:space="preserve">
<circle fill="#70B3C8" cx="29.806" cy="29.708" r="29.879"/>
<g id="Layer_1_1_">
</g>
<g id="Layer_2">
	<g>
		<path fill="#FFFFFF" d="M43.91,17.811h-7.384l-1.478-1.97c-0.214-0.5-0.706-0.824-1.25-0.824h-8.572
			c-0.544,0-1.036,0.324-1.25,0.824l-1.478,1.97h-7.017c-1.425,0-2.58,1.154-2.58,2.579v17.961c0,1.424,1.155,2.579,2.58,2.579
			H43.91c1.424,0,2.579-1.155,2.579-2.579V20.39C46.489,18.964,45.334,17.811,43.91,17.811z M29.696,37.292
			c-4.375,0-7.921-3.547-7.921-7.922s3.546-7.921,7.921-7.921s7.922,3.546,7.922,7.921S34.071,37.292,29.696,37.292z M42.093,23.36
			h-0.087c-0.648,0-1.172-0.525-1.172-1.172c0-0.647,0.524-1.172,1.172-1.172h0.087c0.647,0,1.172,0.525,1.172,1.172
			C43.265,22.834,42.741,23.36,42.093,23.36z"/>
	</g>
</g>
<circle fill="#FFFFFF" cx="29.696" cy="29.37" r="6.337"/>
</svg>
