<?xml version="1.0" encoding="utf-8"?>
<!-- Generator: Adobe Illustrator 15.1.0, SVG Export Plug-In . SVG Version: 6.00 Build 0)  -->
<!DOCTYPE svg PUBLIC "-//W3C//DTD SVG 1.1//EN" "http://www.w3.org/Graphics/SVG/1.1/DTD/svg11.dtd">
<svg version="1.1" id="Layer_1_1_" xmlns="http://www.w3.org/2000/svg" xmlns:xlink="http://www.w3.org/1999/xlink" x="0px" y="0px"
	 width="59.792px" height="59.792px" viewBox="0 0 59.792 59.792" enable-background="new 0 0 59.792 59.792" xml:space="preserve">
<circle fill="#3D85B2" cx="29.896" cy="29.896" r="29.896"/>
<path fill="#FFFFFF" d="M29.669,38.01c3.976,0,7.199-3.222,7.199-7.199v-12c0-3.976-3.223-7.199-7.199-7.199
	c-3.978,0-7.199,3.223-7.199,7.2v11.998C22.47,34.788,25.691,38.012,29.669,38.01z"/>
<path fill="#FFFFFF" d="M41.668,30.811V26.01h-2.399v4.427c0,4.606-3.077,8.851-7.593,9.77c-6.169,1.254-11.606-3.446-11.606-9.396
	V26.01h-2.399v4.801c0,5.794,4.131,10.643,9.6,11.757v5.042H22.47v2.399h14.398V47.61h-4.799v-5.042
	C37.537,41.454,41.668,36.604,41.668,30.811z"/>
</svg>
