<?xml version="1.0" encoding="utf-8"?>
<!-- Generator: Adobe Illustrator 15.1.0, SVG Export Plug-In  -->
<!DOCTYPE svg PUBLIC "-//W3C//DTD SVG 1.1//EN" "http://www.w3.org/Graphics/SVG/1.1/DTD/svg11.dtd" [
	<!ENTITY ns_flows "http://ns.adobe.com/Flows/1.0/">
]>
<svg version="1.1"
	 xmlns="http://www.w3.org/2000/svg" xmlns:xlink="http://www.w3.org/1999/xlink" xmlns:a="http://ns.adobe.com/AdobeSVGViewerExtensions/3.0/"
	 x="0px" y="0px" width="78px" height="59px" viewBox="0 0 78 59" enable-background="new 0 0 78 59" xml:space="preserve">
<defs>
</defs>
<path fill="#B4C6D1" d="M31.073,8.023c-3.142,2.292-5.688,4.819-7.641,7.577c-1.955,2.759-3.312,5.624-4.075,8.596
	c5.603,0,10.079,1.572,13.435,4.711c3.354,3.141,5.031,7.303,5.031,12.48c0,5.011-1.783,9.232-5.349,12.672
	c-3.565,3.438-7.939,5.156-13.116,5.156c-5.775,0-10.442-1.952-14.009-5.857C1.783,49.455,0,44.36,0,38.077
	C0,31.2,2.102,24.432,6.304,17.766C10.507,11.101,16.428,5.179,24.069,0L31.073,8.023z M71.338,8.023
	c-3.229,2.547-5.752,5.115-7.577,7.704c-1.827,2.591-3.12,5.412-3.884,8.469c5.518,0,9.933,1.572,13.244,4.711
	c3.311,3.141,4.967,7.303,4.967,12.48c0,5.011-1.783,9.232-5.35,12.672c-3.565,3.438-7.939,5.156-13.116,5.156
	c-5.774,0-10.442-1.952-14.009-5.857c-3.565-3.903-5.348-8.998-5.348-15.281c0-6.877,2.101-13.646,6.303-20.312
	C50.771,11.101,56.648,5.179,64.207,0L71.338,8.023z"/>
</svg>
