<?xml version="1.0" encoding="utf-8"?>
<!-- Generator: Adobe Illustrator 15.1.0, SVG Export Plug-In . SVG Version: 6.00 Build 0)  -->
<!DOCTYPE svg PUBLIC "-//W3C//DTD SVG 1.1//EN" "http://www.w3.org/Graphics/SVG/1.1/DTD/svg11.dtd">
<svg version="1.1" id="Capa_1" xmlns="http://www.w3.org/2000/svg" xmlns:xlink="http://www.w3.org/1999/xlink" x="0px" y="0px"
	 width="36.723px" height="18.947px" viewBox="0 0 36.723 18.947" enable-background="new 0 0 36.723 18.947" xml:space="preserve">
<g>
	<g>
		<path fill="#DD0000" d="M12.267,13.146v2.602h-2.115v3.003H6.895v-3.003H0.317L0,13.251c3.934-5.795,6.141-9.038,6.62-9.729
			l3.532,0.317v9.306H12.267z M3.172,13.146h3.765V7.563L3.172,13.146z"/>
	</g>
</g>
<g>
	<g>
		<path fill="#00B786" d="M25.497,9.624v2.601h-2.115v3.004h-3.257v-3.004h-6.578L13.23,9.729c3.934-5.795,6.14-9.038,6.62-9.729
			l3.532,0.317v9.306H25.497L25.497,9.624z M16.403,9.624h3.765V4.04L16.403,9.624z"/>
	</g>
</g>
<g>
	<g>
		<path fill="#0066CC" d="M36.723,16.367v2.581H25.789v-2.581c1.1-0.888,1.939-1.572,2.517-2.052
			c0.578-0.479,1.216-1.04,1.914-1.681s1.209-1.164,1.534-1.565c0.324-0.402,0.599-0.832,0.825-1.29
			c0.225-0.458,0.338-0.892,0.338-1.301c0-0.648-0.226-1.163-0.677-1.544c-0.452-0.381-1.051-0.571-1.798-0.571
			c-0.338,0-0.67,0.032-0.994,0.095c-0.325,0.063-0.571,0.124-0.74,0.18l-0.232,0.106l-0.212,1.798h-2.221l-0.106-3.913
			c1.594-0.563,3.145-0.846,4.653-0.846c1.833,0,3.253,0.321,4.262,0.962c1.008,0.642,1.512,1.709,1.512,3.204
			c0,0.719-0.124,1.41-0.37,2.073c-0.247,0.663-0.659,1.351-1.237,2.062c-0.578,0.712-1.188,1.375-1.83,1.988
			s-1.491,1.378-2.548,2.295H36.723L36.723,16.367L36.723,16.367z"/>
	</g>
</g>
<rect x="13.252" y="16.888" fill="#4A4A4D" width="10.155" height="1.908"/>
</svg>
